<svg width="718" height="604" viewBox="0 0 718 604" fill="none" xmlns="http://www.w3.org/2000/svg">
<path d="M121.379 204.436C121.379 204.436 132.774 201.782 139.79 195.293C147.777 187.911 147.758 182.902 147.758 182.902L169.197 195.017C169.197 195.017 168.915 199.092 162.38 207.666C155.533 216.65 148.429 219.555 143.992 220.939C142.844 221.298 142.168 221.457 142.168 221.457L121.379 204.436Z" fill="#F2F2F2"/>
<path d="M475.398 144.277C475.398 144.277 487.081 144.897 495.628 140.617C505.354 135.746 506.733 130.93 506.733 130.93L523.949 148.525C523.949 148.525 522.543 152.364 513.878 158.78C504.8 165.506 497.166 166.324 492.519 166.418C491.319 166.441 490.624 166.41 490.624 166.41L475.398 144.277Z" fill="#F2F2F2"/>
<path d="M525.882 178.595C525.882 178.595 529.172 189.811 536.049 196.449C543.873 204.001 548.879 203.702 548.879 203.702L537.976 225.765C537.976 225.765 533.885 225.712 524.953 219.677C515.59 213.35 512.287 206.429 510.656 202.079C510.234 200.956 510.034 200.288 510.034 200.288L525.882 178.595Z" fill="#F2F2F2"/>
<g opacity="0.3">
<path d="M440.338 346.984C440.223 349.666 440.036 355.004 439.878 359.709H311.069V369.796H317.547V421.298C286.558 403.511 268.263 393.997 226.433 400.41C215.159 402.145 204.318 403.538 193.92 404.227C193.604 401.113 193.188 397.151 192.73 393.02C193.103 392.832 193.462 392.647 193.807 392.447C193.807 392.447 187.776 355.691 184.861 344.931L185.708 344.444C185.708 344.444 185.363 340.711 184.99 335.648C188.953 335.216 203.816 333.437 205.395 331.072C206.286 329.738 206.732 328.259 206.932 327.113L212.877 326.007L214.313 321.288L330.083 320.685V347.112C330.083 349.479 332.008 351.402 334.377 351.402H347.531L343.982 359.449H379.424V357.153H358.832L361.257 351.4H385.353C387.721 351.4 389.647 349.478 389.647 347.111V320.381L405.989 320.297L415.953 332.935C417.676 335.117 420.765 335.633 423.104 334.14C427.412 331.385 434.305 326.925 439.832 322.992C440.193 331.517 440.595 341.072 440.338 346.984Z" fill="#54ADFF"/>
<path d="M148.456 345.537C145.08 355.062 141.463 372.249 144.981 397.659C144.981 397.659 146.015 397.802 147.823 397.987C147.895 398.819 147.967 399.683 148.039 400.557C132.83 396.208 118.944 388.059 106.436 374.2C78.0609 342.766 84.7526 286.371 148.642 263.586C148.153 272.553 148.843 276.543 147.794 281.823C147.565 282.739 147.392 283.473 147.278 283.96C147.247 284.089 147.22 284.219 147.177 284.361C147.177 284.389 147.163 284.434 147.163 284.461C146.818 285.666 146.387 286.957 145.842 288.406C145.382 289.612 145.224 290.485 145.31 291.088V291.102C143.429 293.643 141.835 298.363 140.284 306.569C138.733 314.774 137.786 323.886 138.504 325.305C138.776 325.866 140.399 326.04 142.28 326.04C145.195 326.04 148.728 325.622 148.728 325.622C149.676 325.566 150.725 325.466 151.83 325.351C152.763 332.051 147.522 345.248 147.522 345.248L148.456 345.537Z" fill="#54ADFF"/>
<path d="M549.803 268.005C513.285 253.746 488.501 247.849 467.477 200.146C446.454 152.443 431.562 121.539 377.269 112.802C333.441 105.743 290.735 116.218 266.697 143.491L280.899 143.418L342.532 143.101L421.11 142.7C430.243 142.644 437.697 150.017 437.739 159.143L438.487 303.6V304.029C439.305 303.6 440.239 303.255 441.201 302.983C443.916 300.514 449.515 297.759 454.225 296.914C454.225 296.914 454.225 296.928 454.211 296.956C454.34 296.914 454.412 296.885 454.412 296.885L467.465 297.617C467.465 297.617 480.605 304.961 483.62 306.828C485.573 308.033 483.663 318.061 481.983 326.381C498.44 327.143 499.675 330.312 499.675 330.312C499.675 330.312 497.749 344.359 495.453 359.709H525.379V369.796H518.429V383.036C527.935 377.6 538.576 372.52 550.682 368.101C632.503 338.262 594.534 285.465 549.803 268.005ZM471.727 277.016C468.841 287.029 466.416 288.118 466.416 288.118C463.773 290.858 454.095 294.233 451.941 294.016C449.801 293.801 448.148 286.64 447.59 286.066C447.044 285.478 444.431 284.82 444.79 283.929C445.134 283.026 447.848 277.487 446.599 276.77C445.538 276.153 446.73 273.183 447.532 271.477C447.532 271.477 441.343 265.236 446.671 262.267C461.878 253.773 466.085 264.304 467.263 264.607C468.44 264.906 475.073 265.351 471.727 277.016Z" fill="#54ADFF"/>
<path d="M471.727 277.017C468.841 287.029 466.416 288.118 466.416 288.118C463.773 290.858 454.095 294.233 451.941 294.016C449.801 293.801 448.148 286.64 447.59 286.066C447.044 285.478 444.43 284.82 444.789 283.929C445.134 283.026 447.848 277.487 446.599 276.77C445.538 276.153 446.729 273.183 447.532 271.477C447.532 271.477 441.343 265.236 446.671 262.267C461.878 253.773 466.085 264.304 467.263 264.607C468.44 264.906 475.073 265.351 471.727 277.017Z" fill="#54ADFF"/>
<path d="M185.662 291.507C184.441 290.33 183.279 289.383 182.317 288.909C178.871 287.188 172.666 286.054 170.671 285.709L168.517 283.846C168.345 283.285 168.158 282.711 168 282.108C167.844 281.52 167.699 280.932 167.57 280.344C168.245 280.458 168.79 280.503 169.178 280.517C171.504 280.559 173.601 273.902 173.601 273.902C173.601 273.902 175.597 273.502 176.084 273.202C176.558 272.899 174.663 266.816 175.279 264.75C175.91 262.685 176.184 260.059 176.184 260.059C176.313 258.823 176.227 257.648 175.94 256.542C179.286 255.855 182.459 255.108 185.475 254.334L185.662 291.507Z" fill="#54ADFF"/>
<path d="M214.31 321.289L212.874 326.008L206.929 327.114C206.728 328.26 206.283 329.74 205.392 331.074C203.813 333.438 188.95 335.219 184.987 335.649C185.36 340.712 185.705 344.445 185.705 344.445L184.858 344.933C187.773 355.693 193.804 392.448 193.804 392.448C193.459 392.65 193.1 392.835 192.727 393.022C193.185 397.152 193.601 401.115 193.917 404.228C188.633 404.557 183.465 404.73 178.423 404.657C172.851 404.57 167.425 404.198 162.139 403.466C157.315 402.808 152.618 401.847 148.039 400.555C147.965 399.682 147.894 398.818 147.823 397.986C146.014 397.801 144.981 397.657 144.981 397.657C141.463 372.248 145.08 355.06 148.456 345.535L147.523 345.247C147.523 345.247 152.764 332.049 151.831 325.349C150.725 325.464 149.677 325.565 148.729 325.621C148.729 325.621 145.197 326.038 142.282 326.038C140.401 326.038 138.779 325.864 138.505 325.303C137.787 323.886 138.735 314.773 140.286 306.568C141.837 298.36 143.43 293.642 145.312 291.101V291.086C145.225 290.484 145.383 289.61 145.843 288.405C146.389 286.956 146.819 285.665 147.164 284.46C147.164 284.431 147.178 284.386 147.178 284.359C147.222 284.216 147.25 284.088 147.279 283.959C147.394 283.471 147.566 282.737 147.796 281.821C148.843 276.542 148.155 272.552 148.643 263.585C149.203 263.386 149.778 263.185 150.366 262.982C150.625 262.895 150.882 262.812 151.14 262.711C154.99 261.42 159.054 260.257 163.318 259.212C166.161 258.509 169.09 257.875 172.12 257.304C173.212 257.102 174.289 256.887 175.337 256.657C175.538 256.628 175.739 256.587 175.94 256.542C176.227 257.648 176.313 258.823 176.184 260.059C176.184 260.059 175.911 262.684 175.28 264.75C174.662 266.814 176.558 272.899 176.084 273.202C175.595 273.502 173.601 273.902 173.601 273.902C173.601 273.902 171.504 280.56 169.178 280.517C168.789 280.503 168.245 280.458 167.57 280.344C167.699 280.932 167.842 281.52 168 282.108C168.158 282.711 168.345 283.285 168.517 283.846L170.671 285.709C172.667 286.054 178.871 287.188 182.317 288.909C183.279 289.382 184.441 290.329 185.662 291.507V291.851L185.735 304.217V304.892C185.749 307.159 186.209 309.325 187.04 311.29C187.155 311.533 187.27 311.777 187.371 312.007C190.07 317.561 195.786 321.377 202.362 321.347L214.31 321.289Z" fill="#54ADFF"/>
<path d="M241.753 210.231V222.885C241.753 225.18 239.901 227.045 237.589 227.045H232.938C237 221.477 239.658 215.509 241.64 209.297C241.709 209.601 241.753 209.914 241.753 210.231Z" fill="#54ADFF"/>
<path d="M241.753 243.243V255.897C241.753 258.205 239.901 260.071 237.589 260.071H224.925C222.626 260.071 220.76 258.205 220.76 255.897V243.243C220.76 240.947 222.627 239.082 224.925 239.082H237.589C239.901 239.082 241.753 240.947 241.753 243.243Z" fill="#54ADFF"/>
<path d="M241.753 276.268V288.921C241.753 291.217 239.901 293.082 237.589 293.082H224.925C222.626 293.082 220.76 291.215 220.76 288.921V276.268C220.76 273.959 222.627 272.093 224.925 272.093H237.589C239.901 272.093 241.753 273.959 241.753 276.268Z" fill="#54ADFF"/>
<path d="M389.647 320.384V347.114C389.647 349.481 387.721 351.403 385.353 351.403H361.257L358.832 357.156H379.424V359.452H343.982L347.531 351.405H334.377C332.007 351.405 330.083 349.482 330.083 347.115V320.688L389.647 320.384Z" fill="#54ADFF"/>
<path d="M402.713 177.721H254.705V182.871H402.713V177.721Z" fill="#54ADFF"/>
<path d="M402.713 210.69H254.705V215.84H402.713V210.69Z" fill="#54ADFF"/>
<path d="M402.713 246.327H254.705V251.492H402.713V246.327Z" fill="#54ADFF"/>
<path d="M402.713 279.312H254.705V284.463H402.713V279.312Z" fill="#54ADFF"/>
<path d="M525.376 359.71V369.797H518.426V383.038C516.502 384.128 514.635 385.234 512.811 386.353C511.734 387.015 510.687 387.673 509.638 388.335C487.983 402.135 472.417 417.472 457.712 429.867C453.418 433.483 449.211 436.853 444.933 439.868C437.436 445.148 429.767 449.309 421.223 451.746C416.586 453.08 411.702 453.898 406.432 454.113C387.98 454.872 364.991 448.201 332.593 429.923C330.152 428.547 327.797 427.213 325.528 425.893C324.451 425.291 323.404 424.674 322.355 424.071C320.718 423.139 319.109 422.205 317.544 421.299V369.797H311.066V359.71H439.875C440.033 355.006 440.22 349.667 440.335 346.986C440.593 341.074 440.19 331.519 439.831 322.997C434.302 326.928 427.411 331.389 423.103 334.144C420.762 335.638 417.675 335.122 415.952 332.939L405.987 320.301L422.027 320.213C431.017 320.169 438.312 312.952 438.484 304.029C439.302 303.6 440.236 303.255 441.198 302.983C443.913 300.514 449.512 297.759 454.222 296.914C454.222 296.914 454.222 296.928 454.208 296.956C454.337 296.914 454.409 296.885 454.409 296.885L467.462 297.617C467.462 297.617 480.602 304.961 483.617 306.828C485.57 308.033 483.66 318.061 481.98 326.381C498.437 327.143 499.672 330.312 499.672 330.312C499.672 330.312 497.746 344.359 495.45 359.709H525.376V359.71Z" fill="#54ADFF"/>
</g>
<path opacity="0.7" d="M241.753 210.231V222.885C241.753 225.18 239.901 227.045 237.589 227.045H224.925C222.626 227.045 220.76 225.179 220.76 222.885V210.231C220.76 207.935 222.627 206.07 224.925 206.07H237.589C239.571 206.07 241.222 207.449 241.639 209.298C241.709 209.601 241.753 209.914 241.753 210.231Z" fill="#54ADFF"/>
<path opacity="0.7" d="M241.753 177.463V190.117C241.753 192.425 239.901 194.291 237.589 194.291H224.925C222.626 194.291 220.76 192.425 220.76 190.117V177.463C220.76 175.167 222.627 173.302 224.925 173.302H237.589C239.901 173.302 241.753 175.169 241.753 177.463Z" fill="#54ADFF"/>
<path opacity="0.7" d="M241.753 243.243V255.897C241.753 258.205 239.901 260.071 237.589 260.071H224.925C222.626 260.071 220.76 258.205 220.76 255.897V243.243C220.76 240.947 222.627 239.082 224.925 239.082H237.589C239.901 239.082 241.753 240.947 241.753 243.243Z" fill="#54ADFF"/>
<path opacity="0.7" d="M241.753 276.268V288.921C241.753 291.217 239.901 293.082 237.589 293.082H224.925C222.626 293.082 220.76 291.216 220.76 288.921V276.268C220.76 273.959 222.627 272.093 224.925 272.093H237.589C239.901 272.093 241.753 273.959 241.753 276.268Z" fill="#54ADFF"/>
<path opacity="0.6" d="M437.737 159.143C437.696 150.017 430.241 142.644 421.108 142.7L342.531 143.101L280.897 143.418L266.695 143.491L201.456 143.819C192.311 143.878 184.942 151.31 184.986 160.45L185.474 254.334L185.66 291.507V291.851L185.734 304.217V304.892C185.748 307.159 186.208 309.326 187.039 311.29C187.154 311.533 187.269 311.777 187.369 312.007C190.069 317.561 195.784 321.377 202.361 321.347L214.307 321.291L330.078 320.688L389.643 320.385L405.984 320.301L422.025 320.213C431.014 320.169 438.309 312.952 438.481 304.029V303.6L437.737 159.143ZM241.753 288.923C241.753 291.218 239.901 293.083 237.589 293.083H224.925C222.626 293.083 220.761 291.217 220.761 288.923V276.269C220.761 273.961 222.627 272.094 224.925 272.094H237.589C239.901 272.094 241.753 273.961 241.753 276.269V288.923ZM241.753 255.897C241.753 258.205 239.901 260.072 237.589 260.072H224.925C222.626 260.072 220.761 258.205 220.761 255.897V243.243C220.761 240.947 222.627 239.082 224.925 239.082H237.589C239.901 239.082 241.753 240.949 241.753 243.243V255.897ZM241.753 222.885C241.753 225.18 239.901 227.045 237.589 227.045H224.925C222.626 227.045 220.761 225.179 220.761 222.885V210.231C220.761 207.935 222.627 206.07 224.925 206.07H237.589C239.571 206.07 241.222 207.449 241.639 209.298C241.71 209.601 241.753 209.915 241.753 210.231V222.885ZM241.753 190.118C241.753 192.426 239.901 194.293 237.589 194.293H224.925C222.626 194.293 220.761 192.426 220.761 190.118V177.464C220.761 175.169 222.627 173.304 224.925 173.304H237.589C239.901 173.304 241.753 175.17 241.753 177.464V190.118ZM402.713 284.461H254.705V279.311H402.713V284.461ZM402.713 251.492H254.705V246.327H402.713V251.492ZM402.713 215.84H254.705V210.69H402.713V215.84ZM402.713 182.871H254.705V177.721H402.713V182.871Z" fill="#54ADFF"/>
<path opacity="0.7" d="M402.713 177.721H254.705V182.871H402.713V177.721Z" fill="#54ADFF"/>
<path opacity="0.7" d="M402.713 210.69H254.705V215.84H402.713V210.69Z" fill="#54ADFF"/>
<path opacity="0.7" d="M402.713 246.327H254.705V251.492H402.713V246.327Z" fill="#54ADFF"/>
<path opacity="0.7" d="M402.713 279.312H254.705V284.463H402.713V279.312Z" fill="#54ADFF"/>
<path d="M402.713 177.721H254.705V182.871H402.713V177.721Z" fill="white"/>
<path d="M402.713 210.69H254.705V215.84H402.713V210.69Z" fill="white"/>
<path d="M402.713 246.327H254.705V251.492H402.713V246.327Z" fill="white"/>
<path d="M402.713 279.312H254.705V284.463H402.713V279.312Z" fill="white"/>
<path d="M241.753 177.463V190.117C241.753 192.425 239.901 194.291 237.589 194.291H224.925C222.626 194.291 220.76 192.425 220.76 190.117V177.463C220.76 175.167 222.627 173.302 224.925 173.302H237.589C239.901 173.302 241.753 175.169 241.753 177.463Z" fill="#54ADFF"/>
<path d="M241.753 243.243V255.897C241.753 258.205 239.901 260.071 237.589 260.071H224.925C222.626 260.071 220.76 258.205 220.76 255.897V243.243C220.76 240.947 222.627 239.082 224.925 239.082H237.589C239.901 239.082 241.753 240.947 241.753 243.243Z" fill="#54ADFF"/>
<path d="M230.541 254.647L224.712 249.587C224.234 249.169 224.185 248.449 224.599 247.97C225.013 247.494 225.736 247.443 226.216 247.858L230.336 251.436L236.2 244.885C236.618 244.412 237.342 244.373 237.816 244.794C238.29 245.217 238.332 245.94 237.906 246.413L230.541 254.647Z" fill="white"/>
<path d="M241.753 210.231V222.885C241.753 225.18 239.901 227.045 237.589 227.045H224.925C222.626 227.045 220.76 225.179 220.76 222.885V210.231C220.76 207.935 222.627 206.07 224.925 206.07H237.589C239.571 206.07 241.222 207.449 241.639 209.298C241.709 209.601 241.753 209.914 241.753 210.231Z" fill="#54ADFF"/>
<path d="M230.541 221.628L224.712 216.571C224.234 216.153 224.185 215.43 224.599 214.954C225.013 214.475 225.736 214.424 226.216 214.839L230.336 218.417L236.2 211.866C236.618 211.396 237.342 211.357 237.816 211.777C238.29 212.201 238.332 212.924 237.906 213.391L230.541 221.628Z" fill="white"/>
<path d="M241.753 276.268V288.921C241.753 291.217 239.901 293.082 237.589 293.082H224.925C222.626 293.082 220.76 291.216 220.76 288.921V276.268C220.76 273.959 222.627 272.093 224.925 272.093H237.589C239.901 272.093 241.753 273.959 241.753 276.268Z" fill="#54ADFF"/>
<path d="M230.541 287.665L224.712 282.607C224.234 282.193 224.185 281.47 224.599 280.988C225.013 280.511 225.736 280.461 226.216 280.876L230.336 284.454L236.2 277.903C236.618 277.433 237.342 277.394 237.816 277.816C238.29 278.236 238.332 278.959 237.906 279.427L230.541 287.665Z" fill="white"/>
<path d="M228.809 185.396C228.809 185.125 228.822 184.864 228.861 184.615C228.894 184.365 228.963 184.13 229.063 183.897C229.164 183.665 229.312 183.45 229.498 183.247C229.689 183.045 229.939 182.863 230.245 182.698C230.4 182.613 230.606 182.504 230.86 182.368C231.118 182.236 231.367 182.077 231.608 181.9C231.849 181.724 232.059 181.516 232.237 181.283C232.415 181.054 232.507 180.798 232.507 180.516C232.507 180.127 232.36 179.821 232.079 179.602C231.792 179.378 231.469 179.272 231.098 179.272C230.866 179.272 230.65 179.316 230.469 179.407C230.287 179.494 230.119 179.603 229.974 179.724C229.823 179.85 229.695 179.991 229.589 180.144C229.486 180.295 229.388 180.432 229.307 180.553L227.477 179.272C227.787 178.549 228.275 177.988 228.944 177.585C229.612 177.184 230.369 176.985 231.207 176.985C231.658 176.985 232.109 177.047 232.556 177.176C233.005 177.311 233.412 177.517 233.762 177.798C234.124 178.081 234.41 178.448 234.636 178.9C234.859 179.348 234.974 179.894 234.974 180.534C234.974 181.207 234.832 181.775 234.555 182.23C234.277 182.685 233.867 183.085 233.321 183.427C233.074 183.594 232.818 183.744 232.566 183.873C232.314 184.005 232.077 184.14 231.864 184.282C231.654 184.425 231.482 184.584 231.349 184.761C231.222 184.937 231.153 185.15 231.153 185.399H228.809V185.396ZM228.861 189.745V187.081H231.187V189.745H228.861Z" fill="white"/>
<path d="M522.807 313.5C522.807 313.5 526.43 312.872 526.361 311.401C526.288 309.928 526.91 307.921 527.137 307.3C527.443 306.47 527.473 303.531 528.474 303.948C529.472 304.369 528.64 308.805 528.642 309.775C528.643 310.747 531.781 308.029 532.734 308.02C533.686 308.011 537.739 313.876 535.379 315.47C533.017 317.067 529.467 317.096 529.107 317.463C528.747 317.83 525.62 319.063 525.62 319.063L522.807 313.5Z" fill="#EEA886"/>
<path d="M532.095 308.251C532.095 308.251 539.643 303.882 540.382 304.044C541.126 304.204 541.332 304.656 540.644 305.095C539.955 305.535 533.472 309.545 533.472 309.545C533.472 309.545 543.254 305.987 543.885 305.976C544.257 305.97 544.708 306.825 544.357 307.096C544.01 307.367 534.515 311.488 534.515 311.488C534.515 311.488 543.655 308.183 544.188 308.344C544.656 308.485 544.886 309.376 544.227 309.67C543.565 309.964 535.253 313.542 535.253 313.542C535.253 313.542 542.058 311.587 542.44 312.001C542.674 312.257 543.095 312.974 541.323 313.422C539.552 313.868 535.486 315.388 535.486 315.388L532.095 308.251Z" fill="#EEA886"/>
<path d="M477.411 407.225L492.225 468.944H495.489L482.924 407.09L477.411 407.225Z" fill="#858585"/>
<path d="M461.245 407.225L476.064 468.944H479.327L466.762 407.09L461.245 407.225Z" fill="#858585"/>
<path d="M443.184 407.225L428.369 468.944H425.102L437.667 407.09L443.184 407.225Z" fill="#858585"/>
<path d="M499.673 330.312C499.673 330.312 497.748 344.359 495.452 359.709C495.25 361.014 495.049 362.32 494.848 363.64V363.654C494.576 365.447 494.303 367.241 494.03 369.02C493.987 369.278 493.944 369.535 493.901 369.796C493.326 373.497 492.752 377.113 492.177 380.468C491.531 384.341 490.914 387.857 490.354 390.755C490.067 392.19 489.808 393.468 489.564 394.557C488.975 397.138 488.342 399.205 487.681 400.884C485.025 407.755 482.138 407.828 482.138 407.828H418.294C417.849 401.716 419.559 391.444 419.559 391.444L420.277 390.511L436.26 369.796L436.863 369.02L439.705 365.333V365.318L442.045 362.292L443.28 360.699L444.041 359.71L444.255 359.439L445.42 357.917L469.817 326.298C474.584 326.197 478.604 326.253 481.98 326.382C498.438 327.143 499.673 330.312 499.673 330.312Z" fill="#E2D2CA"/>
<path d="M440.871 368.866L449.192 367.416L443.644 353.458L440.871 368.866Z" fill="#24263D"/>
<path d="M407.321 462.822C407.321 462.822 401.852 466.07 399.377 467.279C396.896 468.487 387.26 468.857 386.31 469.764C385.361 470.669 385.715 473.547 387.311 473.836C388.91 474.127 400.628 475.156 404.535 474.23C408.441 473.308 415.755 474.827 417.373 474.275C418.99 473.72 417.923 465.002 417.293 463.047C416.663 461.092 407.321 462.822 407.321 462.822Z" fill="#0E538C"/>
<path d="M407.407 459.13L407.321 462.82C407.321 462.82 414.649 464.17 417.294 463.047L417.111 458.995L407.407 459.13Z" fill="#1C1E30"/>
<path d="M475.389 376.116C475.389 376.116 433.564 384.988 427.036 387.758C420.509 390.527 416.593 391.67 416.105 393.053C415.613 394.441 405.417 460.71 405.417 460.71H419.287C419.287 460.71 430.056 410.661 431.361 407.562C432.667 404.466 484.394 404.301 488.145 400.551C491.899 396.802 495.163 386.533 491.083 377.322C487.003 368.111 475.389 376.116 475.389 376.116Z" fill="#282B45"/>
<path d="M458.321 465.439C458.321 465.439 453.411 469.485 451.149 471.06C448.886 472.632 439.417 474.47 438.617 475.513C437.818 476.553 438.609 479.344 440.234 479.385C441.86 479.427 453.593 478.651 457.314 477.141C461.035 475.636 468.493 476.018 470.007 475.222C471.523 474.428 469.135 465.978 468.211 464.142C467.289 462.302 458.321 465.439 458.321 465.439Z" fill="#0E538C"/>
<path d="M457.84 461.782L458.321 465.439C458.321 465.439 465.771 465.651 468.211 464.142L467.408 460.166L457.84 461.782Z" fill="#0E538C"/>
<path d="M478.006 369.939C478.006 369.939 432.672 390.591 429.734 397.283C426.745 404.098 456.196 463.631 456.196 463.631L469.74 461.538C469.74 461.538 447.594 404.915 448.807 402.088C450.021 399.26 521.842 390.711 505.269 371.665C488.697 352.614 478.006 369.939 478.006 369.939Z" fill="#282B45"/>
<path d="M477.807 306.125C479.984 304.996 487.242 307.47 489.384 310.805C494.369 318.558 503.785 328.136 503.785 328.136L524.78 310.499L528.989 321.012L504.066 342C501.942 343.788 498.809 343.679 496.816 341.745C490.268 335.395 476.794 322.041 475.752 318.701C474.375 314.282 473.649 308.285 477.807 306.125Z" fill="#0B4870"/>
<path d="M481.982 326.381C481.061 330.973 480.201 335.048 480.115 336.827C479.97 339.609 477.227 350.585 474.845 359.709C474.012 362.881 473.221 365.835 472.603 368.132L472.359 369.02L472.158 369.796H472.142L471.295 372.936L457.007 369.796L453.49 369.02L447.516 367.7L444.614 367.07C444.787 366.453 444.729 364.859 444.557 362.665C444.485 361.774 444.386 360.772 444.285 359.709C444.271 359.621 444.255 359.523 444.255 359.437C444.112 358.09 443.939 356.641 443.753 355.133V355.119C443.695 354.673 443.652 354.214 443.58 353.74C442.892 348.145 442.058 342.063 441.599 338.132C441.197 334.646 440.766 328.592 440.522 322.494C440.191 313.872 440.22 305.191 441.225 303.656C441.412 303.37 441.714 303.067 442.1 302.753C445.015 300.413 452.855 297.461 454.207 296.956C454.336 296.914 454.408 296.885 454.408 296.885L467.461 297.617C467.461 297.617 480.6 304.961 483.616 306.828C485.572 308.033 483.662 318.061 481.982 326.381Z" fill="white"/>
<path d="M471.301 372.938L472.608 368.127L444.563 362.671L444.623 367.068L471.301 372.938Z" fill="#1F2136"/>
<path d="M457.351 364.911L450.7 363.523V368.78L457.351 370.33V364.911Z" fill="#4F558A"/>
<path d="M460.333 351.222C460.404 352.598 460.493 353.994 460.564 355.403L460.584 355.42C461.53 370.89 462.943 387.075 462.943 387.075C464.889 388.701 489.603 382.965 489.603 382.965C489.603 382.965 486.561 378.84 483.629 367.407C480.679 355.991 482.986 345.023 486.043 326.448C489.081 307.871 486.561 307.974 486.561 307.974L467.467 297.614C466.216 302.366 461.154 319.605 459.956 329.483C459.53 333.09 459.796 341.721 460.333 351.222Z" fill="#0B4870"/>
<path d="M454.224 296.914C454.224 296.914 454.224 296.928 454.21 296.956C454.037 297.387 452.571 301.245 450.878 306.799C450.06 309.48 449.198 312.552 448.394 315.822C448.394 315.822 448.394 315.836 448.379 315.836C447.59 319.05 446.857 322.48 446.313 325.907C445.034 333.77 444.475 345.005 443.842 353.957C443.813 354.357 443.784 354.733 443.755 355.12V355.135C443.641 356.772 443.511 358.304 443.382 359.71C443.352 360.054 443.325 360.386 443.282 360.698C442.836 365.232 442.276 368.289 441.415 368.505C441.228 368.546 441.056 368.589 440.911 368.634C438.915 369.107 439.605 368.721 439.605 368.721C439.605 368.721 439.647 367.371 439.705 365.334V365.32C439.762 363.756 439.819 361.806 439.877 359.71C440.035 355.006 440.221 349.667 440.336 346.986C440.595 341.073 440.191 331.519 439.832 322.997C439.445 314.117 437.951 305.004 438.484 303.6C438.712 302.994 437.953 303.684 438.712 302.994C441.428 300.529 449.512 297.761 454.224 296.914Z" fill="#0B4870"/>
<path d="M454.683 294.667C454.683 295.544 454.61 296.349 454.415 296.884C454.415 296.884 455.881 302.6 467.467 297.616C467.467 297.616 465.176 289.095 467.467 281.949L454.415 290.042C454.415 290.042 454.576 291.327 454.646 292.83C454.683 293.434 454.701 294.079 454.683 294.667Z" fill="#EEA987"/>
<path d="M466.994 295.35C466.994 295.35 462.441 297.55 457.846 297.976L460.086 302.733L467.468 297.62L466.994 295.35Z" fill="#D3D3D3"/>
<path d="M457.846 297.976C457.846 297.976 454.64 296.917 454.663 295.35L454.228 296.92L455.535 301.941L457.846 297.976Z" fill="#D3D3D3"/>
<path d="M457.846 297.976L456.17 300.851C456.17 300.851 456.947 301.736 459.432 301.353L457.846 297.976Z" fill="#54ADFF"/>
<path d="M456.53 301.1C456.53 301.1 449.682 321.23 449.627 335.524C449.573 349.815 450.7 358.347 450.7 358.347L452.209 361.16L454.412 358.591C454.412 358.591 452.857 317.091 458.95 301.412C458.95 301.412 456.784 300.38 456.53 301.1Z" fill="#54ADFF"/>
<path d="M454.646 292.828C454.682 293.434 454.699 294.078 454.682 294.666C463.89 294.812 464.033 289.557 464.033 289.557C462.602 293.363 454.646 292.828 454.646 292.828Z" fill="#A77860"/>
<path d="M401.382 299.913C401.382 299.913 399.109 295.399 398.743 294.723C398.375 294.045 396.581 293.109 394.436 292.227C392.294 291.35 389.048 291.23 388.731 291.49C388.413 291.748 387.984 291.843 387.662 292.907C387.338 293.969 387.589 295.068 387.589 295.068C387.589 295.068 386.636 296.167 387.036 297.494C387.036 297.494 386.181 298.573 386.863 299.999C386.863 299.999 386.053 301.078 386.626 302.066C386.626 302.066 388.419 303.01 388.998 303.574C389.571 304.138 393.431 305.813 397.351 306.79C397.351 306.79 401.332 306.324 401.382 299.913Z" fill="#EEA886"/>
<path d="M401.382 299.913C401.382 299.913 405.719 304.234 405.621 305.267C405.457 306.973 403.351 311.952 403.243 311.852C403.134 311.752 396.454 306.557 396.454 306.557L401.382 299.913Z" fill="#EEA886"/>
<path d="M446.515 315.706C446.515 315.706 446.515 315.72 446.501 315.72C445.783 316.981 442.64 319.506 438.646 322.375C438.416 322.549 438.187 322.705 437.957 322.88C432.428 326.809 425.537 331.273 421.229 334.028C418.888 335.518 415.801 335.003 414.078 332.823L404.113 320.182L393.903 307.241L394.463 306.394L399.204 299.207L400.151 297.786L417.154 319.292C417.154 319.292 428.311 311.802 434.759 305.217C435.247 304.714 435.879 304.284 436.611 303.911C437.43 303.479 438.363 303.135 439.325 302.864C439.627 302.776 439.929 302.707 440.23 302.634C443.06 302.017 445.96 302.09 447.037 302.964C448.243 303.94 448.846 305.231 449.004 306.68C449.36 309.549 448.009 312.993 446.515 315.706Z" fill="#0B4870"/>
<path d="M394.001 298.371L395.174 297.565L385.613 283.683L384.44 284.49L394.001 298.371Z" fill="#EB4747"/>
<path d="M385.638 283.678L383.647 282.032L384.459 284.481L385.638 283.678Z" fill="#EEA886"/>
<path d="M389.304 291.696C389.304 291.696 394.689 294.066 394.456 295.078C394.221 296.086 393.586 296.3 393.586 296.3L395.411 298.393C395.411 298.393 395.914 300.534 393.671 300.509C393.671 300.509 394.331 302.456 392.164 302.149C392.164 302.149 392.085 303.646 391.06 303.702C390.035 303.755 386.627 302.067 386.627 302.067C386.627 302.067 386.051 301.353 386.864 300C386.864 300 386.142 298.674 387.038 297.495C387.038 297.495 386.61 296.334 387.591 295.069C387.591 295.069 386.815 292.402 388.732 291.491C388.732 291.491 389.074 291.596 389.304 291.696Z" fill="#D69779"/>
<path d="M398.582 294.624C398.582 294.624 394.631 295.05 392.565 296.333C392.101 296.621 391.698 296.997 391.767 297.591C391.834 298.185 392.691 298.829 394.412 298.743C396.129 298.659 398.394 299.425 398.394 299.425C398.394 299.425 400.137 298.758 398.582 294.624Z" fill="#EEA886"/>
<path d="M403.279 408.43C403.279 408.43 406.213 390.15 406.366 389.409C406.523 388.669 409.507 386.005 423.765 381.336C423.765 381.336 407.914 384.415 403.759 387.119C400.555 389.204 403.279 408.43 403.279 408.43Z" fill="#12131F"/>
<path d="M325.524 374.569H322.349V478.704H325.524V374.569Z" fill="#0E538C"/>
<path d="M512.814 374.569H509.638V478.704H512.814V374.569Z" fill="#0E538C"/>
<path d="M518.427 369.021H317.545V463.366H518.427V369.021Z" fill="#CCE9FF"/>
<path d="M525.376 359.452H311.068V369.539H525.376V359.452Z" fill="#0E538C"/>
<path d="M326.73 476.655H321.144V478.704H326.73V476.655Z" fill="#0E538C"/>
<path d="M513.908 476.655H508.546V478.704H513.908V476.655Z" fill="#0E538C"/>
<path d="M389.647 312.796V347.114C389.647 349.481 387.721 351.403 385.353 351.403H334.375C332.006 351.403 330.082 349.481 330.082 347.114V312.796C330.082 310.429 332.006 308.506 334.375 308.506H385.353C387.721 308.506 389.647 310.429 389.647 312.796Z" fill="#F7F7F7"/>
<path d="M369.154 357.156V359.452H343.981L347.529 351.405L353.889 336.97L354.133 336.409H367.603L361.3 351.317L361.256 351.405L358.83 357.156H369.154Z" fill="#F7F7F7"/>
<path d="M366.828 336.409L366.569 337.043L360.48 351.405L357.077 359.452H344.024L347.571 351.405L353.919 336.97L354.164 336.409H366.828Z" fill="#F2F2F2"/>
<path d="M379.423 357.156V359.452H357.94L358.831 357.156H379.423Z" fill="#D3D3D3"/>
<path d="M361.27 351.32L367.604 336.341V351.32H361.27Z" fill="#D3D3D3"/>
<path d="M355.391 343.373C356.094 341.563 357.778 340.465 359.429 340.602C359.296 340.523 359.157 340.455 359.01 340.399C357.102 339.662 354.88 340.808 354.047 342.963C353.21 345.118 354.08 347.464 355.989 348.2C356.292 348.317 356.603 348.382 356.915 348.408C355.307 347.509 354.62 345.363 355.391 343.373Z" fill="white"/>
<path d="M357.953 348.327C359.233 348.042 360.4 347.066 360.955 345.637C361.566 344.056 361.258 342.38 360.3 341.304C360.158 341.145 360.004 340.996 359.834 340.867C359.707 340.769 359.572 340.679 359.432 340.6C357.781 340.462 356.097 341.561 355.394 343.372C354.623 345.362 355.308 347.508 356.918 348.408C357.037 348.416 357.152 348.422 357.268 348.419C357.497 348.415 357.725 348.377 357.953 348.327Z" fill="#D3D3D3"/>
<path d="M570.135 253.912C570.135 253.912 567.427 254.274 567.451 253.128C567.471 251.984 567.655 250.491 567.655 250.491L570.135 253.912Z" fill="#EEA987"/>
<path d="M585.357 241.5L576.466 248.37C577.599 248.158 579.496 247.882 579.542 248.476C579.601 249.32 576.162 250.34 575.072 251.108C574.072 251.813 573.023 253.069 572.744 253.128L570.801 254.792L567.656 250.491C567.656 250.491 572.846 244.623 574.097 243.373C576.13 241.339 584.356 240.142 584.804 240.439C585.616 240.973 585.357 241.5 585.357 241.5Z" fill="#EEA987"/>
<path d="M574.383 255.082L567.213 249.013L542.624 273.84C538.773 276.483 550.133 285.594 553.338 287.584C561.581 292.69 571.304 304.504 581.39 297.299C592.323 289.487 576.406 283.927 571.1 284.064C566.498 284.181 556.481 275.144 556.481 275.144L574.383 255.082Z" fill="#54ADFF"/>
<path d="M561.406 477.849C561.406 477.849 557.319 482.133 553.173 483.032C549.027 483.929 541.87 486.986 541.837 489.447C541.804 491.907 558.028 491.613 562.774 489.135C569.858 485.434 570.579 486.549 571.363 484.699C572.15 482.853 570.421 477.902 570.471 477.316C570.534 476.59 561.406 477.849 561.406 477.849Z" fill="#0B4870"/>
<path d="M561.865 475.798C561.865 475.798 561.324 477.804 561.406 477.85C561.486 477.892 570.752 478.929 570.471 477.318C570.244 476.009 569.92 474.589 569.92 474.589L561.865 475.798Z" fill="#2F6B8C"/>
<path d="M607.556 478.965C607.556 478.965 604.55 483.14 600.529 484.104C596.566 485.054 590.7 488.761 590.506 491.151C590.312 493.538 603.149 494.768 609.85 490.571C614.255 487.811 615.897 487.972 616.783 486.217C617.671 484.463 616.32 479.552 616.409 478.982C616.516 478.28 607.556 478.965 607.556 478.965Z" fill="#0B4870"/>
<path d="M607.676 476.902C607.676 476.902 607.48 478.919 607.556 478.965C607.63 479.012 616.46 480.57 616.409 478.982C616.366 477.718 615.846 476.146 615.846 476.146L607.676 476.902Z" fill="#2F6B8C"/>
<path d="M571.211 355.209C571.211 355.209 566.918 386.352 565.166 396.88C563.119 409.186 562.424 419.355 561.849 425.73C561.131 433.741 560.181 474.744 559.677 477.09C559.171 479.43 572.173 478.213 572.173 478.213C572.173 478.213 578.985 424.757 581.125 416.222C583.119 408.278 588.924 373.955 590.74 376.124C592.56 378.293 598.128 417.175 599.474 423.44C600.824 429.705 604.431 479.039 604.431 479.039C604.431 479.039 616.697 481.004 619.167 479.039C619.167 479.039 617.23 435.049 616.374 423.302C616.045 418.822 619.209 369.695 611.63 349.884C607.626 339.416 571.211 355.209 571.211 355.209Z" fill="#0E538C"/>
<path d="M585.237 280.524C585.237 280.524 573.884 282.87 572.536 284.064C571.074 285.333 568.492 297.755 568.34 301.218C568.183 304.681 569.708 319.137 571.17 324.52C572.632 329.903 569.253 352.928 568.328 360.387C568.328 360.387 593.598 365.126 616.075 362.203C616.075 362.203 613.011 339.548 613.911 332.173C615.066 322.721 617.836 300.943 617.836 300.943C617.836 300.943 617.855 288.686 616.116 286.728C612.388 282.521 598.052 280.524 598.052 280.524H585.237Z" fill="#54ADFF"/>
<path d="M600.851 303.255C601.384 314.475 604.958 317.202 608.478 316.33C609.582 316.058 610.666 315.43 611.62 314.601C613.116 313.301 614.289 311.502 614.71 309.792C616.251 303.544 616.264 286.31 608.371 284.094C608.371 284.094 599.811 281.329 600.851 303.255Z" fill="#54ADFF"/>
<path d="M566.893 308.353C566.893 308.353 573.228 307.303 573.613 316.482C574.001 325.661 577.98 342.712 584.458 349.508L558.966 350.475C552.485 343.68 549.303 327.405 548.82 318.231C548.372 309.793 542.094 310.102 542.094 310.102L566.893 308.353Z" fill="#D3D3D3"/>
<path d="M581.764 287.328C581.91 287.425 582.062 287.518 582.233 287.599C582.809 287.893 583.54 288.104 584.461 288.204C584.795 288.243 585.133 288.254 585.471 288.246C585.678 288.243 585.885 288.229 586.096 288.21C592.106 287.625 598.069 280.754 598.069 280.754C586.003 278.927 580.829 281.174 580.829 281.174C580.829 281.174 578.897 285.398 581.764 287.328Z" fill="#54ADFF"/>
<path d="M582.015 282.982C582.015 282.982 584.825 284.837 595.483 280.146C595.483 280.146 594.421 273.821 596.062 266.883C597.647 260.206 582.973 275.118 582.973 275.118C583.144 275.242 583.175 275.923 583.076 276.873C583.05 277.131 583.015 277.405 582.97 277.691C582.894 278.184 582.791 278.711 582.661 279.252C582.628 279.398 582.592 279.543 582.551 279.689C581.952 281.97 582.015 280.992 582.015 282.982Z" fill="#EEA886"/>
<path d="M595.48 278.128C595.48 278.128 589.909 281.486 584.394 282.242L587.328 286.919L596.618 280.524L595.48 278.128Z" fill="#0B4870"/>
<path d="M582.551 279.689C582.551 279.689 583.138 281.615 584.394 282.242L581.64 286.078L581.741 280.992L582.551 279.689Z" fill="#0B4870"/>
<path d="M582.599 277.843C588.918 278.176 592.96 271.631 593.084 271.437C589.115 275.767 582.97 276.024 582.97 276.024C582.894 276.517 582.727 277.302 582.599 277.843Z" fill="#A77860"/>
<path d="M566.893 308.353C566.893 308.353 559.306 309.056 560.91 319.634L538.389 320.85C538.389 320.85 535.278 313.647 542.093 310.102L566.893 308.353Z" fill="#F7F7F7"/>
<path d="M586.412 328.124C586.412 328.124 585.437 328.583 584.588 328.354C583.124 327.956 581.874 325.922 579.96 326.966C578.049 328.012 579.656 335.008 580.626 336.033C581.599 337.059 584.577 336.46 588.305 333.79C592.03 331.123 586.412 328.124 586.412 328.124Z" fill="#EEA886"/>
<path d="M580.657 326.709C580.657 326.709 577.423 326.95 573.857 327.659C570.73 328.282 566.933 329.488 567.079 330.279C567.302 331.475 570.303 330.128 573.445 329.721C576.341 329.345 575.832 329.909 575.832 329.909C575.832 329.909 575.967 329.741 572.894 330.77C569.585 331.876 566.084 333.199 566.19 333.848C566.327 334.65 566.41 334.739 567.675 334.536C566.974 334.81 566.949 335.044 567.036 335.353C567.484 336.937 572.592 336.079 574.62 335.735C573.063 336.009 571.95 336.376 572.853 337.173C573.884 338.081 581.054 336.537 583.677 336.231C586.533 335.9 580.657 326.709 580.657 326.709Z" fill="#EEA886"/>
<path d="M605.851 284.316C603.533 285.078 602.296 288.351 603.704 295.149C605.265 302.667 607.011 306.321 608.02 308.092C609.026 309.862 614.46 318.928 613.468 320.365C612.474 321.8 599.339 325.213 598.444 325.469C596.665 325.974 584.749 328.349 584.749 328.349L587.664 338.546C587.664 338.546 623.946 332.359 625.714 330.596C627.48 328.831 628.401 326.441 626.448 320.276C624.462 314.014 620.896 299.347 620.26 298.201C619.63 297.055 616.305 280.883 605.851 284.316Z" fill="#54ADFF"/>
<path opacity="0.3" d="M604.027 296.631C604.027 296.631 605.212 311.819 610.475 322.606C612.075 322.248 613.649 321.421 615.03 320.328C615.03 320.328 608.947 310.347 608.403 309.212C607.859 308.077 604.642 299.274 604.027 296.631Z" fill="#A77860"/>
<path opacity="0.3" d="M586.59 336.396C586.59 336.396 601.196 339.016 613.772 337.455C613.584 336.242 613.753 334.912 614.144 333.356C614.144 333.356 602.352 335.668 601.029 335.825C599.705 335.982 589.581 336.494 586.59 336.396Z" fill="#A77860"/>
<path d="M164.581 247.332L164.423 248.766L162.716 264.878C158.695 261.935 155.392 264.49 152.894 268.635C152.822 268.75 152.749 268.865 152.678 268.994C150.481 265.02 147.855 257.833 152.75 251.578C155.164 248.494 158.724 247.159 162.357 247.159C162.572 247.159 162.802 247.159 163.018 247.174C163.118 247.174 163.204 247.188 163.305 247.188C163.461 247.202 163.634 247.217 163.793 247.23C163.922 247.247 164.051 247.26 164.181 247.274C164.254 247.288 164.326 247.288 164.396 247.303C164.452 247.317 164.524 247.317 164.581 247.332Z" fill="#E8734D"/>
<path d="M176.084 273.2C175.596 273.5 173.601 273.9 173.601 273.9C173.601 273.9 171.504 280.559 169.178 280.516C168.789 280.501 168.245 280.457 167.57 280.342C165.976 280.071 163.678 279.425 161.309 278.134L161.912 272.496L162.531 266.642C162.531 266.628 162.545 266.628 162.545 266.628L162.66 265.423L162.718 264.876C158.697 261.934 155.394 264.489 152.895 268.634C152.09 266.756 151.459 264.733 151.142 262.71C150.051 255.965 152.391 249.339 162.989 248.736C163.405 248.707 163.895 248.722 164.425 248.765C167.871 249.009 173.129 250.773 175.34 256.655C175.728 257.661 176.015 258.793 176.187 260.057C176.187 260.057 175.914 262.683 175.283 264.749C174.664 266.814 176.558 272.897 176.084 273.2Z" fill="#A77860"/>
<path d="M176.184 260.059C176.184 260.059 170.239 264.16 164.323 265.035C163.934 265.094 163.575 265.165 163.216 265.265H163.201C163.015 265.31 162.828 265.365 162.656 265.424L162.713 264.878C158.692 261.935 155.39 264.49 152.891 268.635C152.819 268.75 152.746 268.865 152.675 268.994C152.245 268.206 151.785 267.288 151.385 266.271C151.297 266.056 151.212 265.839 151.125 265.609C150.823 264.792 150.565 263.904 150.365 262.984C150.365 262.97 150.365 262.955 150.349 262.942C150.292 262.684 150.25 262.424 150.206 262.152C150.148 261.881 150.105 261.594 150.076 261.291C150.046 261.02 150.019 260.73 150.005 260.459C149.989 260.173 149.974 259.885 149.974 259.598C149.974 256.958 150.707 254.189 152.746 251.578C155.16 248.494 158.72 247.159 162.353 247.159C162.568 247.159 162.798 247.159 163.013 247.174C163.114 247.174 163.2 247.188 163.3 247.188C163.457 247.202 163.629 247.217 163.789 247.23C163.918 247.247 164.047 247.26 164.176 247.274C164.25 247.288 164.321 247.288 164.392 247.303C164.449 247.317 164.521 247.317 164.578 247.332C169.82 248.122 174.731 251.594 175.937 256.542C176.229 257.648 176.313 258.822 176.184 260.059Z" fill="#0E538C"/>
<path d="M147.796 281.823C147.665 282.496 147.494 283.213 147.279 283.96C147.394 283.473 147.566 282.738 147.796 281.823Z" fill="#E8734D"/>
<path d="M209.097 479.55C209.097 479.55 214.581 487.244 213.83 488.467C213.081 489.686 207.311 489.86 203.803 488.467C200.293 487.074 200.211 478.051 198.623 474.179C197.958 472.556 199.377 467.767 201.38 467.417C203.382 467.07 205.555 468.093 205.555 468.093C205.555 468.093 203.478 473.55 209.097 479.55Z" fill="#54ADFF"/>
<path d="M205.593 468.031C205.593 468.031 206.745 471.307 207.167 474.437C207.516 477.032 211.073 482.54 210.907 483.242C210.739 483.939 206.227 484.57 204.386 482.771C202.551 480.972 201.364 475.748 200.961 472.625C200.582 469.714 200.108 468.276 200.108 468.276C200.108 468.276 203.836 466.114 205.593 468.031Z" fill="#A77860"/>
<path d="M161.375 479.679C161.375 479.679 166.661 487.244 165.907 488.467C165.154 489.686 159.39 489.86 155.879 488.467C152.371 487.074 152.284 478.051 150.698 474.179C150.032 472.556 151.456 467.767 153.457 467.417C155.457 467.07 157.801 468.165 157.801 468.165C157.801 468.165 155.754 473.677 161.375 479.679Z" fill="#54ADFF"/>
<path d="M157.8 468.165C157.8 468.165 158.218 471.737 158.886 474.265C159.557 476.79 163.15 482.54 162.983 483.24C162.816 483.937 158.3 484.569 156.465 482.77C154.625 480.971 153.204 475.77 153.039 472.624C152.872 469.472 153.457 467.417 153.457 467.417C153.457 467.417 156.046 466.251 157.8 468.165Z" fill="#A77860"/>
<path d="M205.924 469.637C205.924 469.637 205.652 469.866 205.191 470.093C204.301 470.552 202.678 471.025 200.998 469.807C200.853 469.707 200.582 469.264 200.18 468.546C200.18 468.546 200.18 468.546 200.18 468.529V468.515C200.137 468.459 200.108 468.4 200.065 468.33C196.604 461.974 185.604 437.038 185.604 429.579C185.604 421.068 181.21 410.684 178.424 404.657C177.377 402.405 176.543 400.77 176.256 400.053C175.954 399.321 175.667 398.604 175.394 397.901C166.434 375.334 168.243 368.302 166.979 366.767C165.688 365.189 165.574 367.743 164.811 371.245C164.308 373.609 163.389 388.332 162.542 398.703C162.413 400.441 162.269 402.06 162.14 403.466C161.896 406.05 161.666 407.958 161.465 408.746C160.489 412.594 161.25 425.533 160.718 432.074C160.171 438.603 157.803 468.17 157.803 468.17C157.803 468.17 155.965 471.169 153.38 468.243C153.366 468.215 153.337 468.156 153.309 468.041C153.266 467.912 153.237 467.727 153.179 467.483C152.232 462.503 148.929 434.685 148.828 427.542C148.713 419.766 148.599 409.047 148.398 405.691C148.283 403.898 148.168 402.192 148.039 400.555C147.965 399.682 147.894 398.818 147.823 397.986C145.64 372.565 142.137 366.928 149.216 346.079C149.246 345.992 149.274 345.894 149.317 345.808C150.58 342.106 151.901 339.035 153.251 336.497C153.28 336.441 153.309 336.382 153.337 336.326C153.352 336.309 153.337 336.309 153.337 336.309C156.166 331.044 159.124 328.174 162.025 326.955C162.901 326.596 163.779 326.381 164.639 326.282C165.17 326.237 165.701 326.223 166.233 326.265C166.29 326.265 166.362 326.265 166.419 326.282C167.568 326.38 168.688 326.697 169.765 327.17C169.765 327.17 169.78 327.17 169.78 327.184C170.225 327.358 170.656 327.588 171.086 327.814L171.115 327.831C172.723 328.734 174.26 329.953 175.653 331.303C175.811 331.447 175.94 331.574 176.084 331.732L176.099 331.747C176.717 332.349 177.291 332.982 177.851 333.613C178.383 334.23 178.898 334.86 179.374 335.48C179.806 336.023 180.179 336.526 180.565 337.043V337.058C182.174 339.31 183.322 341.289 183.884 342.25C183.926 342.323 183.97 342.393 183.999 342.465C184.085 342.653 184.155 342.765 184.186 342.838C184.2 342.852 184.214 342.867 184.214 342.88C184.214 342.897 184.229 342.91 184.229 342.924C184.259 343.095 184.417 343.871 184.661 345.048C185.867 350.871 189.125 366.78 190.003 371.443C190.592 374.556 191.74 384.143 192.731 393.022C193.189 397.152 193.606 401.115 193.922 404.228C194.182 406.795 194.368 408.776 194.439 409.752C194.754 414.485 199.335 432.303 199.12 433.998C198.933 435.474 204.203 461.285 205.598 468.027C205.598 468.041 205.598 468.056 205.612 468.071C205.626 468.113 205.626 468.142 205.641 468.169C205.823 469.104 205.924 469.637 205.924 469.637Z" fill="#A77860"/>
<path d="M193.805 392.449C193.461 392.652 193.102 392.837 192.728 393.023C187.717 395.634 181.569 397.112 175.396 397.901C171 398.472 166.577 398.689 162.544 398.703C156.297 398.733 150.926 398.303 147.825 397.986C146.015 397.801 144.983 397.657 144.983 397.657C141.464 372.248 145.082 355.06 148.458 345.535C150.596 339.467 152.621 336.495 152.621 336.495C152.621 336.495 152.851 336.495 153.253 336.495H153.339C155.035 336.495 159.485 336.554 164.511 336.927C169.063 337.272 174.089 337.889 177.952 338.992C178.941 339.277 179.86 339.594 180.666 339.939C182.145 340.583 183.265 341.345 183.883 342.247C183.924 342.32 183.969 342.391 183.997 342.462C184.084 342.591 184.141 342.706 184.184 342.835C184.198 342.85 184.213 342.864 184.213 342.877C184.213 342.894 184.227 342.907 184.227 342.921C184.415 343.409 184.616 344.098 184.859 344.93C187.774 355.694 193.805 392.449 193.805 392.449Z" fill="#0E538C"/>
<path d="M198.474 473.5V481.556H199.479V475.329L198.474 473.5Z" fill="#54ADFF"/>
<path d="M150.55 473.5V481.556H151.554V475.329L150.55 473.5Z" fill="#54ADFF"/>
<path d="M162.716 264.878L162.659 265.424L162.544 266.629C162.544 266.629 162.529 266.629 162.529 266.644L161.91 272.497L161.307 278.136L160.72 283.774C160.72 283.774 160.288 284.118 159.586 284.648C159.57 284.662 159.57 284.678 159.555 284.678C159.455 284.762 159.341 284.848 159.227 284.936C159.069 285.051 158.909 285.18 158.737 285.309C158.207 285.709 157.588 286.155 156.913 286.656C156.899 286.67 156.899 286.67 156.883 286.67C156.854 286.685 156.811 286.715 156.77 286.744C155.447 287.691 153.926 288.739 152.431 289.642C149.129 291.665 145.969 293.043 145.381 291.406C145.339 291.306 145.323 291.204 145.309 291.104V291.089C145.223 290.487 145.381 289.613 145.84 288.408C146.386 286.959 146.817 285.668 147.161 284.463C147.161 284.434 147.176 284.389 147.176 284.362C147.219 284.219 147.247 284.091 147.276 283.962C147.492 283.214 147.664 282.497 147.793 281.824C148.84 276.545 148.152 272.555 148.64 263.588C148.698 262.456 148.784 261.251 148.885 259.945C149.816 248.353 158.276 247.075 162.354 247.162C158.721 247.162 155.16 248.497 152.747 251.581C149.804 255.339 149.574 259.457 150.365 262.985C150.868 265.325 151.801 267.419 152.676 268.995C152.747 268.866 152.821 268.751 152.891 268.637C155.392 264.49 158.695 261.935 162.716 264.878Z" fill="#0E538C"/>
<path d="M170.268 288.564C170.268 288.564 169.966 288.637 169.478 288.752C168.458 288.982 166.563 289.369 164.639 289.64C164.351 289.682 164.064 289.728 163.777 289.755C163.72 289.769 163.648 289.769 163.59 289.784C162.971 289.857 162.355 289.913 161.78 289.93C160.99 289.972 160.257 289.959 159.683 289.871C158.491 289.683 157.874 289.196 158.419 288.178C158.534 287.976 158.622 287.747 158.707 287.503C158.865 287.102 158.979 286.629 159.066 286.112V286.095C159.066 286.081 159.066 286.081 159.066 286.066C159.137 285.708 159.18 285.32 159.224 284.935C159.338 284.847 159.452 284.761 159.552 284.676C159.567 284.676 159.567 284.659 159.583 284.646C160.285 284.117 160.717 283.772 160.717 283.772L161.304 278.134L161.907 272.496C164.779 272.037 168.27 271.978 167.393 274.533C166.905 275.996 167.091 278.12 167.551 280.272C167.551 280.301 167.565 280.313 167.565 280.342C167.694 280.93 167.838 281.519 167.996 282.107C168.154 282.709 168.341 283.283 168.513 283.844L169.102 285.607L169.116 285.666C169.752 287.386 170.268 288.564 170.268 288.564Z" fill="#A77860"/>
<path d="M138.604 324.823C138.776 326.225 145.33 325.932 152.324 325.217C152.331 325.246 152.338 325.271 152.347 325.299C152.496 325.916 152.627 326.464 152.721 326.852C152.823 327.275 152.919 327.722 153.001 328.192C153.704 332.19 153.648 337.82 152.312 342.644C152.312 342.644 169.94 349.21 180.934 343.227C180.934 343.227 179.767 333.675 181.52 327.501C183.278 321.325 192.448 299.814 192.448 299.814C192.448 299.814 185.8 290.211 180.726 288.454C175.653 286.696 169.112 285.61 169.112 285.61L159.604 285.96C159.604 285.96 151.689 288.02 149.915 288.577C146.749 289.577 145.524 290.629 143.884 293.895C141.63 298.387 137.83 318.51 138.604 324.823ZM148.601 314.242C148.601 314.242 149.467 316.156 150.244 318.322C149.611 318.381 149.011 318.384 148.726 318.426C146.222 318.802 148.105 315.621 148.601 314.242Z" fill="#54ADFF"/>
<path d="M167.999 282.108C162.156 281.29 161.336 278.222 161.307 278.134C167.555 280.272 167.555 280.272 167.555 280.272C167.555 280.301 167.57 280.313 167.57 280.342C167.698 280.93 167.843 281.52 167.999 282.108Z" fill="#A77860"/>
<path d="M148.727 314.318C148.727 314.318 149.156 315.221 150.331 318.769C151.522 308.799 150.899 303.607 150.899 303.607C150.769 308.935 148.727 314.318 148.727 314.318Z" fill="#CFBEB8"/>
<path d="M152.345 325.299C152.495 325.916 152.625 326.464 152.72 326.852C152.822 327.275 152.918 327.722 153 328.192C156.938 326.054 159.768 324.381 159.768 324.381C158.708 324.616 152.345 325.299 152.345 325.299Z" fill="#CFBEB8"/>
<path d="M159.067 286.098L170.264 295.215L169.109 285.61C169.109 285.61 162.582 284.204 159.067 286.098Z" fill="#A77860"/>
<path d="M167.028 293.669L170.264 295.215L159.27 284.328L167.028 293.669Z" fill="#FCD2B1"/>
<path d="M167.999 312.696C167.927 314.333 167.769 316.195 167.541 318.19C167.353 319.827 167.124 321.562 166.865 323.341C166.836 323.497 166.823 323.658 166.793 323.814C166.663 324.632 166.549 325.451 166.419 326.283C166.405 326.298 166.405 326.312 166.405 326.325C166.362 326.555 166.317 326.798 166.29 327.042C166.247 327.258 166.217 327.489 166.175 327.718C166.145 327.918 166.103 328.133 166.075 328.335C165.572 331.289 165.028 334.217 164.509 336.929C163.878 340.127 163.289 343.026 162.801 345.234C162.702 345.736 162.6 346.195 162.515 346.627C162.156 348.291 160.447 349.281 158.824 348.779L149.318 345.809L148.456 345.538L147.523 345.25C147.523 345.25 152.764 332.052 151.831 325.352C151.845 325.324 151.831 325.293 151.831 325.279C151.788 325.008 151.745 324.764 151.687 324.52C151.156 322.339 150.567 320.286 150.036 318.51C150.022 318.451 149.993 318.396 149.979 318.337C149.979 318.308 149.964 318.281 149.95 318.249C149.762 317.647 149.575 317.103 149.419 316.571L149.159 315.783C149.002 315.337 148.857 314.937 148.742 314.578C148.728 314.519 148.713 314.477 148.685 314.432C148.685 314.432 148.67 314.417 148.685 314.417C148.311 313.327 148.067 312.697 148.067 312.697C148.067 312.697 145.238 297.118 152.433 289.642C153.597 288.437 155.033 287.434 156.771 286.744C156.9 286.702 157.029 286.643 157.159 286.6C157.202 286.586 157.216 286.586 157.216 286.586C157.532 286.471 157.862 286.371 158.207 286.283C158.493 286.196 158.767 286.127 159.068 286.068C159.097 286.068 159.126 286.054 159.155 286.054C159.3 286.025 159.427 285.998 159.571 285.983C159.587 285.966 159.587 285.966 159.601 285.966C159.601 285.966 159.845 286.355 160.247 287.059C160.621 287.732 161.166 288.706 161.783 289.929C162.601 291.563 163.578 293.613 164.498 295.926C166.478 300.888 168.259 307.03 167.999 312.696Z" fill="#0B4870"/>
<path d="M194.365 301.633L188.406 309.495L187.042 311.288L184.013 315.292C184.013 316.797 184.042 318.462 184.099 320.226V320.241C184.115 320.756 184.143 321.261 184.157 321.776C184.229 323.583 184.329 325.45 184.43 327.312C184.502 328.461 184.573 329.608 184.644 330.728C184.659 330.843 184.659 330.958 184.674 331.072V331.229C184.774 332.663 184.875 334.042 184.975 335.345C184.975 335.445 184.975 335.547 184.99 335.648C185.363 340.711 185.708 344.444 185.708 344.444L184.861 344.931L184.659 345.046L180.969 347.168C179.691 347.9 178.097 346.997 178.067 345.534C178.067 345.204 178.052 344.845 178.052 344.472C178.024 342.937 177.995 341.056 177.953 338.992C177.923 337.874 177.91 336.683 177.88 335.461C177.88 334.859 177.866 334.242 177.851 333.612C177.837 333.194 177.837 332.765 177.821 332.333V332.292L177.78 329.966C177.764 329.625 177.764 329.279 177.749 328.949C177.735 327.844 177.721 326.755 177.692 325.662C177.678 324.603 177.65 323.555 177.635 322.535C177.606 321.187 177.577 319.88 177.563 318.648C177.52 316.695 177.477 314.918 177.448 313.424C177.333 307.644 174.992 299.882 172.926 294.085C171.23 289.381 169.737 285.965 169.737 285.965C169.794 285.982 169.837 285.995 169.895 286.023C170.009 286.052 170.124 286.094 170.239 286.138L170.11 285.794L170.037 285.606C170.037 285.606 170.266 285.636 170.669 285.706C172.665 286.051 178.868 287.186 182.314 288.906C183.277 289.379 184.438 290.326 185.659 291.504C187.585 293.326 189.638 295.708 191.29 297.702C193.072 299.898 194.365 301.633 194.365 301.633Z" fill="#0B4870"/>
<path d="M184.985 335.345C184.985 335.345 177.179 335.648 175.964 335.345C174.753 335.042 166.652 331.531 166.164 328.065C165.678 324.599 184.985 331.17 184.985 331.17V335.345Z" fill="#A77860"/>
<path d="M160.764 324.512L192.447 320.807L178.136 332.443L160.764 324.512Z" fill="#D3D3D3"/>
<path d="M178.136 332.443L160.764 326.527V324.512L178.72 330.268L178.136 332.443Z" fill="#F2F2F2"/>
<path d="M169.968 318.701C169.968 318.701 172.587 318.701 174.056 318.404C175.192 318.172 178.014 318.492 178.736 319.127C179.453 319.763 181.742 324.199 182.175 324.471C182.606 324.741 181.954 325.371 181.193 325.054C181.193 325.054 180.497 326.994 178.773 326.27C177.052 325.542 175.881 323.953 174.981 323.675C174.08 323.395 168.832 321.985 168.832 321.985C168.832 321.985 168.615 318.228 169.968 318.701Z" fill="#A77860"/>
<path d="M177.448 295.221L174.549 293.383L169.896 286.025L169.695 285.709L168.517 283.846L170.671 285.709L170.813 285.924L177.448 295.221Z" fill="#54ADFF"/>
<path d="M174.543 293.38L170.264 295.215L169.111 285.61L168.512 283.84L174.543 293.38Z" fill="#FCD2B1"/>
<path d="M207.144 325.034C207.144 325.034 207.16 325.895 206.93 327.116C206.729 328.262 206.284 329.741 205.394 331.075C203.814 333.44 188.952 335.22 184.988 335.65C184.371 335.724 184.026 335.751 184.026 335.751C184.069 335.663 184.084 335.536 184.114 335.378C184.243 334.402 184.128 332.279 184.056 331.345C184.04 331.059 184.026 330.886 184.026 330.886L184.084 330.872L184.644 330.728L207.144 325.034Z" fill="#0B4870"/>
<path d="M222.495 294.418L214.31 321.289L212.874 326.008L206.93 327.116L184.987 331.176L184.672 331.232L184.055 331.346L180.736 331.949L178.139 332.437L178.727 330.27L178.986 329.295L179.761 326.398L180.838 322.394L180.909 322.15L185.735 304.217L187.371 298.119L190.918 297.746L191.292 297.705L222.495 294.418Z" fill="#F2F2F2"/>
<path d="M159.27 284.328L167.028 293.669L162.781 297.449L158.201 286.269L159.27 284.328Z" fill="#54ADFF"/>
<path d="M170.038 318.334L169.966 318.707L169.32 322.108L169.148 322.982C169.148 322.982 168.273 323.126 166.865 323.341C165.127 323.612 162.557 323.985 159.772 324.375C159.756 324.375 159.756 324.375 159.742 324.39C159.613 324.404 159.471 324.418 159.341 324.446C157.717 324.661 156.037 324.877 154.414 325.078C154.055 325.107 153.711 325.149 153.368 325.19C153.223 325.207 153.08 325.22 152.951 325.235C152.749 325.249 152.549 325.276 152.348 325.305C152.176 325.322 152.003 325.335 151.831 325.349C150.725 325.464 149.677 325.565 148.729 325.621C148.729 325.621 145.197 326.038 142.282 326.038C140.401 326.038 138.779 325.864 138.505 325.304C137.787 323.886 138.735 314.773 140.286 306.568C141.837 298.36 143.43 293.642 145.312 291.101V291.086C145.771 290.47 146.705 289.896 147.868 289.366C148.024 289.293 148.169 289.237 148.326 289.164C148.656 289.02 149.002 288.878 149.345 288.764C152.305 287.643 155.865 286.856 156.915 286.653C157.029 286.625 157.116 286.597 157.159 286.597C157.202 286.583 157.216 286.583 157.216 286.583L151.056 306.71V306.724L149.792 310.826L149.762 310.955L148.772 314.169L148.729 314.315C148.729 314.315 148.715 314.357 148.686 314.413C148.672 314.413 148.686 314.427 148.686 314.427C148.442 314.932 147.523 316.938 147.568 317.858C147.596 318.187 147.826 318.331 148.128 318.39C148.343 318.373 148.803 318.331 149.449 318.289L149.908 318.245H149.951C150.023 318.231 150.081 318.231 150.152 318.231C150.181 318.231 150.195 318.231 150.224 318.216H150.397C152.507 318.06 155.638 317.872 158.223 317.858C160.032 317.858 162.373 317.931 164.498 318.031C165.617 318.073 166.666 318.129 167.542 318.188C169.034 318.264 170.038 318.334 170.038 318.334Z" fill="#0B4870"/>
<path d="M576.136 253.491C576.136 253.491 573.097 259.12 574.604 259.994C575.847 260.72 573.145 266.248 572.792 267.15C572.437 268.05 575.046 268.708 575.599 269.288C576.155 269.87 577.797 277.019 579.947 277.235C582.094 277.45 591.775 274.085 594.412 271.347C597.048 268.608 599.211 256.241 597.451 251.02C595.694 245.804 581.502 243.652 576.136 253.491Z" fill="#EEA987"/>
<path d="M575.53 254.709C575.53 254.709 569.352 248.462 574.678 245.487C589.877 236.99 594.093 247.524 595.265 247.824C596.437 248.126 603.081 248.583 599.728 260.242C596.845 270.256 594.412 271.347 594.412 271.347C594.412 271.347 594.291 264.876 593.072 263.988C591.168 262.609 586.996 262.942 586.996 262.942C586.996 262.942 588.985 257.668 585.878 256.918C582.772 256.175 578.676 253.544 575.53 254.709Z" fill="#0B4870"/>
<path d="M589.7 261.493C589.976 260.767 590.865 257.663 593.532 259.488C596.203 261.314 591.872 267.173 591.405 267.249C590.938 267.325 587.396 267.585 589.7 261.493Z" fill="#EEA987"/>
<path d="M466.416 288.118C463.773 290.858 454.095 294.233 451.941 294.016C449.801 293.801 448.148 286.64 447.59 286.066C447.044 285.478 444.43 284.82 444.789 283.929C445.134 283.026 447.848 277.487 446.599 276.77C445.538 276.153 446.73 273.183 447.532 271.477C447.863 270.746 448.135 270.258 448.135 270.258C453.506 260.43 467.694 262.582 469.446 267.789C471.212 273.012 469.043 285.378 466.416 288.118Z" fill="#EEA987"/>
<path d="M471.727 277.016C468.841 287.029 466.416 288.118 466.416 288.118C466.416 288.118 466.315 282.968 465.425 281.233C465.31 281.018 465.195 280.86 465.066 280.76C464.089 280.057 462.524 279.798 461.217 279.725C459.982 279.638 458.991 279.711 458.991 279.711C458.991 279.711 460.987 274.446 457.871 273.701C454.77 272.955 450.677 270.314 447.532 271.476C447.532 271.476 441.343 265.235 446.671 262.265C461.878 253.772 466.085 264.302 467.263 264.605C468.44 264.906 475.073 265.351 471.727 277.016Z" fill="#0B4870"/>
<path d="M461.697 278.269C461.973 277.543 462.862 274.436 465.528 276.263C468.199 278.09 463.868 283.949 463.401 284.025C462.935 284.101 459.391 284.358 461.697 278.269Z" fill="#EEA987"/>
</svg>
