<svg width="56" height="56" viewBox="0 0 56 56" fill="none" xmlns="http://www.w3.org/2000/svg">
<path d="M45.0723 10.4893H12.739C11.7725 10.4893 10.989 11.2728 10.989 12.2393V44.5726C10.989 45.5391 11.7725 46.3226 12.739 46.3226H45.0723C46.0388 46.3226 46.8223 45.5391 46.8223 44.5726V12.2393C46.8223 11.2728 46.0388 10.4893 45.0723 10.4893Z" stroke="#3CB3E7" stroke-width="1.5"/>
<path fill-rule="evenodd" clip-rule="evenodd" d="M20.6549 28.0269C25.1646 26.0512 28.1718 24.7487 29.6764 24.1194C33.9725 22.3225 34.8652 22.0104 35.447 22.0001C35.575 21.9978 35.8611 22.0297 36.0465 22.181C36.203 22.3087 36.2461 22.4812 36.2667 22.6022C36.2873 22.7233 36.3129 22.9991 36.2925 23.2146C36.0597 25.6743 35.0524 31.6433 34.5399 34.3983C34.323 35.564 33.8961 35.9548 33.4827 35.9931C32.5843 36.0762 31.9022 35.3961 31.0321 34.8225C29.6706 33.9251 28.9014 33.3664 27.5798 32.4907C26.0524 31.4786 27.0425 30.9223 27.913 30.0132C28.1408 29.7753 32.0989 26.1551 32.1755 25.8267C32.1851 25.7856 32.194 25.6325 32.1035 25.5517C32.0131 25.4708 31.8796 25.4985 31.7833 25.5204C31.6467 25.5516 29.4716 26.9972 25.2581 29.8573C24.6407 30.2836 24.0815 30.4913 23.5805 30.4804C23.0281 30.4684 21.9656 30.1664 21.1758 29.9082C20.207 29.5915 19.437 29.4241 19.5041 28.8863C19.539 28.6062 19.9226 28.3197 20.6549 28.0269Z" fill="#3CB3E7"/>
</svg>
