<svg width="56" height="56" viewBox="0 0 56 56" fill="none" xmlns="http://www.w3.org/2000/svg">
<path fill-rule="evenodd" clip-rule="evenodd" d="M36.8642 34.087H34.7369C33.9314 34.087 33.6836 33.4155 32.2378 31.8775C30.9779 30.5995 30.4203 30.4262 30.1105 30.4262C29.6768 30.4262 29.5528 30.5561 29.5528 31.1843V33.1989C29.5528 33.7404 29.3876 34.0653 28.0245 34.0653C25.7732 34.0653 23.2742 32.6357 21.5186 29.9713C18.875 26.0721 18.1521 23.1478 18.1521 22.5413C18.1521 22.2163 18.276 21.9131 18.875 21.9131H21.0023C21.5393 21.9131 21.7458 22.173 21.9523 22.7796C23.0057 25.9638 24.7612 28.7582 25.4841 28.7582C25.7526 28.7582 25.8765 28.6282 25.8765 27.9134V24.6208C25.7939 23.1045 25.0297 22.9745 25.0297 22.433C25.0297 22.173 25.2363 21.9131 25.5667 21.9131H28.9126C29.367 21.9131 29.5322 22.173 29.5322 22.7362V27.1769C29.5322 27.6535 29.7387 27.8267 29.8626 27.8267C30.1311 27.8267 30.3583 27.6535 30.854 27.1336C32.3824 25.3356 33.477 22.5629 33.477 22.5629C33.6216 22.238 33.8694 21.9347 34.4064 21.9347H36.5338C37.174 21.9347 37.3186 22.2813 37.174 22.7579C36.9055 24.0576 34.3032 27.9134 34.3032 27.9134C34.076 28.3033 33.9934 28.4766 34.3032 28.9098C34.5304 29.2348 35.2739 29.9063 35.7696 30.5128C36.6783 31.5959 37.3805 32.5057 37.5664 33.1339C37.773 33.7621 37.4632 34.087 36.8642 34.087Z" fill="#3CB3E7"/>
<path d="M44.4637 10.4893H12.1304C11.1639 10.4893 10.3804 11.2728 10.3804 12.2393V44.5726C10.3804 45.5391 11.1639 46.3226 12.1304 46.3226H44.4637C45.4302 46.3226 46.2137 45.5391 46.2137 44.5726V12.2393C46.2137 11.2728 45.4302 10.4893 44.4637 10.4893Z" stroke="#3CB3E7" stroke-width="1.5"/>
</svg>
