<svg width="56" height="56" viewBox="0 0 56 56" fill="none" xmlns="http://www.w3.org/2000/svg">
<path d="M44.5723 10.4893H12.239C11.2725 10.4893 10.489 11.2728 10.489 12.2393V44.5726C10.489 45.5391 11.2725 46.3226 12.239 46.3226H44.5723C45.5388 46.3226 46.3223 45.5391 46.3223 44.5726V12.2393C46.3223 11.2728 45.5388 10.4893 44.5723 10.4893Z" stroke="#3CB3E7" stroke-width="1.5"/>
<path d="M28.7247 32.6316C30.6026 32.6316 32.1298 31.1044 32.1298 29.2265V24.1188C32.1298 22.2315 30.6103 20.6958 28.7426 20.6958C28.6827 20.6962 28.623 20.7033 28.5647 20.7171C27.6906 20.7595 26.8663 21.1362 26.2623 21.7694C25.6582 22.4026 25.3207 23.2437 25.3196 24.1188V29.2265C25.3196 31.1044 26.8468 32.6316 28.7247 32.6316Z" fill="#3CB3E7"/>
<path d="M27.872 35.9776V37.7389H29.5746V35.9776C32.9278 35.5563 35.5336 32.6934 35.5336 29.2261H33.831C33.831 32.043 31.5402 34.3338 28.7233 34.3338C25.9064 34.3338 23.6156 32.043 23.6156 29.2261H21.9131C21.9131 32.6925 24.5189 35.5563 27.872 35.9776Z" fill="#3CB3E7"/>
</svg>
