<svg width="56" height="56" viewBox="0 0 56 56" fill="none" xmlns="http://www.w3.org/2000/svg">
<path d="M45.3333 10.75H13C12.0335 10.75 11.25 11.5335 11.25 12.5V44.8333C11.25 45.7998 12.0335 46.5833 13 46.5833H45.3333C46.2998 46.5833 47.0833 45.7998 47.0833 44.8333V12.5C47.0833 11.5335 46.2998 10.75 45.3333 10.75Z" stroke="#3CB3E7" stroke-width="1.5"/>
<path d="M28.192 17.8501C28.1099 17.8501 28.0431 17.9161 28.042 17.9982C27.9916 22.064 27.7092 24.2763 26.24 25.7469C24.7708 27.2174 22.5605 27.5 18.4982 27.5504C18.4161 27.5514 18.3501 27.6183 18.3501 27.7004V28.2998C18.3501 28.3819 18.4161 28.4488 18.4982 28.4498C22.5605 28.5003 24.7708 28.7829 26.24 30.2533C27.7092 31.7238 27.9916 33.9362 28.042 38.002C28.0431 38.0841 28.1099 38.1501 28.192 38.1501H28.7909C28.873 38.1501 28.9399 38.0841 28.9409 38.002C28.9913 33.9362 29.2737 31.7238 30.7429 30.2533C32.2121 28.7829 34.4224 28.5003 38.4847 28.4498C38.5668 28.4488 38.6328 28.3819 38.6328 28.2998V27.7004C38.6328 27.6183 38.5668 27.5514 38.4847 27.5504C34.4224 27.4999 32.2121 27.2174 30.7429 25.7469C29.2737 24.2763 28.9913 22.064 28.9409 17.9982C28.9399 17.9161 28.873 17.8501 28.7909 17.8501H28.192Z" fill="#3CB3E7"/>
<path d="M26.24 25.7469C27.7092 24.2763 27.9916 22.064 28.042 17.9982C28.0431 17.9161 28.1099 17.8501 28.192 17.8501H28.7909C28.873 17.8501 28.9399 17.9161 28.9409 17.9982C28.9913 22.064 29.2737 24.2763 30.7429 25.7469M26.24 25.7469L26.3461 25.8529M26.24 25.7469C24.7708 27.2174 22.5605 27.5 18.4982 27.5504C18.4161 27.5514 18.3501 27.6183 18.3501 27.7004V28.2998C18.3501 28.3819 18.4161 28.4488 18.4982 28.4498C22.5605 28.5003 24.7708 28.7829 26.24 30.2533C27.7092 31.7238 27.9916 33.9362 28.042 38.002C28.0431 38.0841 28.1099 38.1501 28.192 38.1501H28.7909C28.873 38.1501 28.9399 38.0841 28.9409 38.002C28.9913 33.9362 29.2737 31.7238 30.7429 30.2533C32.2121 28.7829 34.4224 28.5003 38.4847 28.4498C38.5668 28.4488 38.6328 28.3819 38.6328 28.2998V27.7004C38.6328 27.6183 38.5668 27.5514 38.4847 27.5504C34.4224 27.4999 32.2121 27.2174 30.7429 25.7469M30.7429 25.7469L30.6368 25.8529" stroke="#3CB3E7" stroke-width="0.3" stroke-linejoin="round"/>
</svg>
