<svg width="597" height="597" viewBox="0 0 597 597" fill="none" xmlns="http://www.w3.org/2000/svg">
<path d="M542.792 464.135C542.792 483.798 526.852 499.737 507.19 499.737H89.229C69.5669 499.737 53.627 483.798 53.627 464.135V218.466C53.627 198.804 69.5669 182.864 89.229 182.864H507.19C526.852 182.864 542.792 198.806 542.792 218.466V464.135Z" fill="#CCE9FF"/>
<path d="M563.681 552.994H33.3125C22.462 552.994 13.6682 544.195 13.6682 533.346V523.524C13.6682 518.1 18.0666 513.705 23.4889 513.705H573.502C578.927 513.705 583.326 518.1 583.326 523.524V533.346C583.326 544.195 574.53 552.994 563.681 552.994Z" fill="#0E538C"/>
<path d="M331.714 533.346H265.283C261.561 533.346 258.162 531.246 256.496 527.921L249.389 513.705H347.603L340.499 527.921C338.835 531.245 335.43 533.346 331.714 533.346Z" fill="#0B4870"/>
<path d="M534.219 160.124H62.7774C46.5062 160.124 33.3125 173.318 33.3125 189.589V513.704H563.68V189.589C563.681 173.318 550.488 160.124 534.219 160.124ZM534.219 474.415C534.219 479.839 529.818 484.239 524.393 484.239H72.5996C67.1743 484.239 62.7789 479.839 62.7789 474.415V199.413C62.7789 193.985 67.1743 189.589 72.5996 189.589H524.396C529.821 189.589 534.219 193.985 534.219 199.413V474.415Z" fill="#2A94F4"/>
<path d="M419.524 80.1413C415.561 78.2935 413.981 73.6444 415.828 69.6803L425.647 48.6301C427.497 44.666 432.073 42.89 436.035 44.7392C439.998 46.5854 441.578 51.2375 439.729 55.2001L429.91 76.2503C428.062 80.2129 423.486 81.989 419.524 80.1413Z" fill="#54ADFF"/>
<path d="M488.753 224.3L467.703 214.483C463.741 212.635 461.962 208.056 463.809 204.093C465.66 200.129 470.308 198.555 474.27 200.402L495.32 210.22C499.286 212.069 501.064 216.644 499.214 220.606C497.365 224.569 492.716 226.15 488.753 224.3Z" fill="#54ADFF"/>
<path d="M471.313 136.883C469.479 136.028 467.967 134.471 467.221 132.416C465.724 128.306 467.843 123.764 471.954 122.269L493.779 114.325C497.889 112.83 502.432 114.949 503.929 119.06C505.423 123.169 503.302 127.712 499.195 129.209L477.369 137.15C475.315 137.899 473.151 137.74 471.313 136.883Z" fill="#54ADFF"/>
<path d="M136.913 320.84L126.603 325.447C119.566 328.589 111.312 325.434 108.166 318.395L93.802 286.245C90.6588 279.208 93.8154 270.953 100.851 267.81L111.163 263.202L136.913 320.84Z" fill="#0B4870"/>
<path d="M240.121 303.43L160.767 333.248C152.066 336.414 142.396 332.32 138.619 323.865L109.948 259.686C106.663 252.337 109.618 243.71 116.707 239.913L193.767 199.683L240.118 303.43H240.121Z" fill="#54ADFF"/>
<path d="M400.017 321.689L261.575 315.665C251.583 315.228 242.691 309.189 238.607 300.061L195.062 202.589C191.092 193.703 192.337 183.348 198.293 175.652L284.382 64.47C296.597 48.6898 321.228 51.6434 329.365 69.8579L425.276 284.53C433.286 302.46 419.628 322.544 400.017 321.689Z" fill="#FFE3CA"/>
<path d="M370.529 147.325L364.768 149.904L390.518 207.538L396.278 204.963C408.96 199.295 414.7 184.286 409.034 171.603L403.885 160.077C398.218 147.401 383.21 141.658 370.529 147.325Z" fill="#0B4870"/>
<path d="M256.363 417.167L210.551 314.62L169.093 330.137L178.303 350.751H178.291L183.438 362.278H183.452L188.598 373.803V373.815L193.747 385.329L211.035 377.613L193.747 385.341L198.893 396.866L204.041 408.393H204.053L209.2 419.918H209.189L214.348 431.444L231.637 423.716C231.769 423.655 231.901 423.594 232.034 423.534C231.901 423.609 231.769 423.669 231.637 423.728L214.348 431.456L216.024 435.194C220.979 446.286 234.107 451.313 245.212 446.357C256.304 441.398 261.331 428.256 256.363 417.167ZM201.171 354.343C201.726 354.042 202.22 353.667 202.642 353.246C202.22 353.681 201.726 354.054 201.171 354.343ZM214.721 372.692C214.868 371.571 214.709 370.377 214.215 369.268C214.096 368.989 213.962 368.727 213.806 368.485C213.962 368.727 214.108 368.991 214.227 369.268C214.721 370.377 214.879 371.559 214.721 372.692ZM222.149 389.571C222.536 389.811 222.885 390.089 223.211 390.414C222.885 390.101 222.536 389.811 222.149 389.571ZM223.246 399.347C223.56 399.021 223.837 398.672 224.09 398.299C223.848 398.672 223.572 399.023 223.246 399.347Z" fill="#0B4870"/>
<path d="M223.211 390.414C222.885 390.101 222.536 389.811 222.149 389.571C222.536 389.811 222.885 390.087 223.211 390.414Z" fill="#C03B2B"/>
<path d="M223.211 390.414C222.885 390.101 222.536 389.811 222.149 389.571C222.536 389.811 222.885 390.087 223.211 390.414Z" fill="url(#paint0_linear_33_281)"/>
<path d="M284.082 64.6058L276.005 75.0354L385.996 321.225L399.724 321.817C419.336 322.671 432.985 302.597 424.977 284.67L329.066 69.9982C320.929 51.7763 296.292 48.8256 284.082 64.6058Z" fill="#54ADFF"/>
<defs>
<linearGradient id="paint0_linear_33_281" x1="222.149" y1="389.991" x2="223.21" y2="389.991" gradientUnits="userSpaceOnUse">
<stop offset="0.3485" stop-color="#4D4D4D"/>
<stop offset="0.9213" stop-color="#333333"/>
</linearGradient>
</defs>
</svg>
