<svg width="486" height="274" viewBox="0 0 486 274" fill="none" xmlns="http://www.w3.org/2000/svg">
<path opacity="0.08" d="M229.458 274C276.597 274 314.812 270.206 314.812 265.526C314.812 260.846 276.597 257.052 229.458 257.052C182.318 257.052 144.104 260.846 144.104 265.526C144.104 270.206 182.318 274 229.458 274Z" fill="#00AEF0"/>
<path opacity="0.08" d="M169.847 259.209C169.417 258.803 106.743 171.047 158.735 143.52C229.483 106.023 135.27 -20.6262 265.883 2.89217C391.635 25.5225 239.963 125.507 291.473 162.041C325.266 185.99 344.883 243.53 274.21 262C229.382 273.67 180.757 269.433 169.847 259.209Z" fill="#00AEF0"/>
<path d="M266.06 157.778L267.857 155.267C268.338 154.328 270.54 154.48 271.249 155.241C271.73 155.774 271.325 157.195 271.097 157.677C270.54 158.869 267.73 163.487 267.73 163.487C267.73 163.487 266.363 164.096 265.174 162.649C264.338 161.685 265.68 158.311 266.06 157.778Z" fill="#FCD2B1"/>
<path d="M270.717 192.282C270.717 192.282 269.857 186.244 267.781 180.155C265.705 174.066 267.73 163.081 267.73 163.081C267.73 163.081 264.819 161.381 264.364 162.294C263.908 163.208 260.567 178.075 260.567 178.075C260.567 178.075 260.44 187.081 262.415 189.897C263.604 191.572 268.591 194.007 270.717 192.282Z" fill="#2A94F4"/>
<path d="M261.63 261.467C261.63 261.467 261.25 263.471 261.276 265.07C261.504 266.186 261.276 266.516 261.276 266.516L256.719 266.16C256.719 266.16 258.744 265.247 258.593 260.909C258.441 256.545 261.63 261.467 261.63 261.467Z" fill="#FCD2B1"/>
<path d="M261.326 265.399C261.326 265.399 259.352 266.084 257.378 265.577C255.074 266.566 253.454 266.947 251.353 267.201C249.252 267.454 249.632 269.027 253.201 268.824C256.77 268.596 259.276 268.748 260.086 268.824C260.871 268.9 262.162 269.002 262.212 268.469C262.288 267.962 261.984 265.222 261.326 265.399Z" fill="#0B4870"/>
<path d="M259.959 205.475C259.959 205.475 257.023 231.911 256.846 235.361C256.669 238.811 256.669 240.004 256.846 242.109C257.023 244.215 258.567 261.873 258.567 261.873L261.554 262.051C261.554 262.051 263.782 242.794 264.668 239.496C265.528 236.198 268.945 219.504 268.945 219.504L265.022 202.43L259.959 205.475Z" fill="#0E538C"/>
<path d="M274.185 261.822C274.185 261.822 274.033 263.294 274.185 264.892C274.489 265.983 274.312 266.338 274.312 266.338L269.73 266.363C269.73 266.363 271.654 265.298 271.173 260.96C270.667 256.621 274.185 261.822 274.185 261.822Z" fill="#FCD2B1"/>
<path d="M274.058 265.399C274.058 265.399 272.084 266.084 270.11 265.577C267.806 266.566 266.186 266.947 264.085 267.201C261.984 267.454 262.364 269.027 265.933 268.824C269.502 268.596 272.008 268.748 272.818 268.824C273.603 268.9 274.894 269.002 274.944 268.469C274.995 267.962 274.717 265.222 274.058 265.399Z" fill="#0B4870"/>
<path d="M265.857 205.475C265.857 205.475 268.338 232.012 268.161 235.462C267.983 238.913 271.173 261.898 271.173 261.898L274.185 261.949C274.185 261.949 274.97 241.754 274.97 238.355C274.97 235.107 276.033 208.773 276.033 208.773L271.603 202.43L265.857 205.475Z" fill="#0E538C"/>
<path d="M264.136 187.081C264.136 187.081 277.602 188.02 278.463 191.064C279.323 194.109 278.184 216.765 278.184 216.765C278.184 216.765 264.946 220.469 258.567 214.304C259.023 212.122 260.972 190.506 264.136 187.081Z" fill="#2A94F4"/>
<path d="M268.97 184.696L267.705 189.466C267.705 189.466 268.135 191.622 270.515 191.419C272.894 191.217 273.147 189.821 273.147 189.821L272.21 184.417C272.236 184.417 269.932 184.011 268.97 184.696Z" fill="#FCD2B1"/>
<path d="M267.477 177.238C267.477 177.238 264.49 181.753 265.047 183.326C265.604 184.899 267.68 186.193 272.287 186.244C273.831 185.863 275.096 181.018 274.944 180.028C274.033 173.66 269.047 175.994 267.477 177.238Z" fill="#FFE3CA"/>
<path d="M266.667 177.669C268.287 179.191 269.148 178.912 271.274 178.836C272.565 178.785 273.097 179.825 272.767 180.485C272.438 181.145 271.021 182.515 272.059 182.616C273.122 182.717 273.046 181.043 273.78 181.753C274.514 182.489 272.919 184.417 273.704 184.823C274.489 185.229 277.197 184.392 276.539 182.565C275.906 180.739 281.602 175.766 272.236 172.975C269.831 172.265 268.971 172.519 268.186 172.468C266.363 172.341 266.439 177.466 266.667 177.669Z" fill="#0B4870"/>
<g opacity="0.2">
<path d="M211.916 183.859C211.916 167.267 213.789 154.201 217.536 144.586C221.282 134.996 227.332 126.674 235.735 119.621C244.114 112.568 250.493 106.124 254.846 100.289C259.2 94.4285 261.402 87.9844 261.402 80.9568C261.402 63.8065 254.036 55.2313 239.304 55.2313C232.495 55.2313 227.003 57.743 222.826 62.7155C218.624 67.7135 216.422 74.462 216.194 82.9865H158.709C158.937 60.28 166.075 42.5968 180.124 29.9117C194.172 17.2518 210.372 10.072 235.761 10.072C261.023 10.072 284.108 16.7698 298.004 28.4655C311.875 40.1613 318.836 56.8042 318.836 78.3691C318.836 87.8068 316.963 96.382 313.217 104.095C309.471 111.807 303.472 119.723 295.194 127.765L275.653 146.006C270.11 151.334 266.237 156.814 264.085 162.446C261.934 168.079 260.744 175.208 260.516 183.834H211.916V183.859ZM204.955 235.665C204.955 227.268 212.777 213.593 218.852 208.189C218.852 208.189 226.8 206.033 235.887 206.033C244.949 206.033 253.378 209.559 259.428 214.963C265.478 220.367 268.515 227.268 268.515 235.665C268.515 244.063 265.478 250.964 259.428 256.368C253.353 261.771 245.81 264.461 236.748 264.461C227.686 264.461 220.118 261.771 214.068 256.368C207.993 250.964 204.955 244.063 204.955 235.665Z" fill="#00AEF0"/>
</g>
<path d="M204.297 183.859C204.297 167.267 206.17 154.201 209.917 144.586C213.663 134.996 219.713 126.674 228.116 119.621C236.495 112.568 242.874 106.124 247.227 100.289C251.581 94.4285 253.783 87.9844 253.783 80.9568C253.783 63.8064 246.417 55.2313 231.685 55.2313C224.876 55.2313 219.384 57.7429 215.207 62.7155C211.005 67.7135 208.803 74.462 208.575 82.9864H151.116C151.318 60.3053 158.456 42.6222 172.505 29.937C186.553 17.2772 206.272 10.96 231.66 10.96C256.922 10.96 276.514 16.8205 290.385 28.5163C304.256 40.212 311.217 56.855 311.217 78.4198C311.217 87.8576 309.344 96.4327 305.598 104.145C301.852 111.858 295.853 119.773 287.575 127.816L268.034 146.057C262.491 151.385 258.618 156.865 256.466 162.497C254.315 168.129 253.125 175.258 252.897 183.884H204.297V183.859ZM197.311 235.665C197.311 227.268 200.349 220.367 206.398 214.963C212.448 209.559 220.016 206.87 229.078 206.87C238.14 206.87 245.709 209.559 251.758 214.963C257.808 220.367 260.845 227.268 260.845 235.665C260.845 244.063 257.808 250.964 251.758 256.368C245.683 261.771 238.14 264.461 229.078 264.461C220.016 264.461 212.448 261.771 206.398 256.368C200.349 250.964 197.311 244.063 197.311 235.665Z" fill="#00AEF0"/>
<path d="M279.222 223.056C279.222 223.056 276.995 223.817 276.438 228.105C276.387 228.485 277.096 228.435 277.172 228.054L278.336 225.669C278.615 226.354 278.159 226.43 278.007 227.115L277.476 228.866C277.273 229.551 277.881 230.185 278.564 230.008C279.197 229.83 279.88 229.602 280.159 229.297C280.766 228.638 282.26 224.756 281.779 223.792C281.298 222.853 280.26 222.168 279.222 223.056Z" fill="#FCD2B1"/>
<path d="M274.514 190.506C275.856 188.882 278.438 189.085 279.602 190.861C281.627 193.931 285.399 200.223 285.373 204.231C285.55 208.874 281.779 223.843 281.779 223.843C281.779 223.843 280.032 223.843 279.222 223.082C279.273 221.864 279.805 207.58 279.805 207.58C279.805 207.58 274.615 199.893 273.476 196.341C272.768 194.109 273.35 191.927 274.514 190.506Z" fill="#2A94F4"/>
<path d="M173.619 171.808C173.619 171.808 173.492 167.495 175.011 165.694C176.985 163.334 181.972 163.106 184.174 164.704C186.629 166.48 188.325 170.666 187.085 174.041C190.831 175.512 194.932 177.364 193.362 187.36C190.173 207.504 164.911 198.853 170.682 181.043C171.973 177.136 173.619 171.808 173.619 171.808Z" fill="#0B4870"/>
<path d="M187.363 256.545C187.363 256.545 187.718 258.423 187.692 259.894C187.49 260.934 187.692 261.239 187.692 261.239L191.92 260.909C191.92 260.909 190.046 260.072 190.173 256.012C190.325 251.978 187.363 256.545 187.363 256.545Z" fill="#B97A59"/>
<path d="M187.642 260.224C187.642 260.224 189.49 260.858 191.312 260.376C193.464 261.29 194.957 261.645 196.906 261.873C198.855 262.101 198.501 263.573 195.185 263.37C191.869 263.167 189.54 263.294 188.806 263.37C188.072 263.446 186.882 263.522 186.832 263.04C186.781 262.583 187.034 260.072 187.642 260.224Z" fill="#0B4870"/>
<path d="M188.933 204.587C188.933 204.587 191.666 229.145 191.818 232.342C191.97 235.538 191.97 236.655 191.818 238.608C191.666 240.562 190.198 256.951 190.198 256.951L187.414 257.103C187.414 257.103 185.338 239.217 184.528 236.173C183.718 233.103 180.554 217.627 180.554 217.627L184.199 201.771L188.933 204.587Z" fill="#0B4870"/>
<path d="M175.72 256.9C175.72 256.9 175.871 258.27 175.72 259.742C175.441 260.757 175.618 261.061 175.618 261.061L179.871 261.086C179.871 261.086 178.074 260.097 178.529 256.063C178.985 252.055 175.72 256.9 175.72 256.9Z" fill="#B97A59"/>
<path d="M175.821 260.224C175.821 260.224 177.669 260.858 179.491 260.376C181.643 261.29 183.136 261.645 185.085 261.873C187.034 262.101 186.68 263.573 183.364 263.37C180.048 263.167 177.719 263.294 176.985 263.37C176.251 263.446 175.061 263.522 175.011 263.04C174.96 262.583 175.239 260.072 175.821 260.224Z" fill="#0B4870"/>
<path d="M183.44 204.587C183.44 204.587 181.136 229.221 181.288 232.418C181.44 235.615 178.504 256.976 178.504 256.976L175.72 257.027C175.72 257.027 175.011 238.278 175.011 235.107C175.011 232.113 174.024 207.631 174.024 207.631L178.15 201.745L183.44 204.587Z" fill="#0B4870"/>
<path d="M192.147 169.728C192.147 169.728 190.249 168.104 189.92 167.546C188.983 166.1 187.465 165.77 186.477 165.719C185.971 165.694 185.566 166.1 185.566 166.582C185.566 166.709 185.642 166.835 185.743 166.912L188.224 168.104C188.351 168.155 188.351 168.18 188.452 168.282L188.553 168.485C188.73 168.713 188.705 168.814 188.401 168.865L188.072 168.84C187.92 168.865 186.781 168.434 186.655 168.358C186.452 168.256 186.199 168.434 186.224 168.662C186.224 168.84 186.326 169.017 186.503 169.093L188.426 170.311L189.996 170.869C193.489 173.66 196.451 175.715 196.805 176.578C193.16 179.191 186.047 182.362 186.047 182.362L188.983 185.686C188.983 185.686 197.919 180.941 200.02 179.216C204.449 174.979 195.742 171.351 192.147 169.728Z" fill="#B97A59"/>
<path d="M186.351 190.252C185.971 191.14 188.857 203.47 189.338 206.312C189.338 206.312 189.287 206.312 189.16 206.286C187.895 206.109 180.2 205.069 173.998 207.682L173.441 190.278L173.416 189.643C173.416 189.643 173.416 188.984 173.467 187.969C173.619 185.889 174.024 182.413 175.365 180.155C176.049 178.988 176.96 178.151 178.2 178.049C182.073 177.669 185.136 179.343 186.604 179.8C189.034 180.561 190.477 180.104 190.477 180.104C190.477 180.104 192.4 184.899 191.439 185.762L187.389 187.462C187.439 187.411 186.73 189.339 186.351 190.252Z" fill="#00AEF0"/>
<path d="M185.338 166.962C185.338 166.962 187.794 172.671 185.946 175.259C184.554 177.212 182.124 177.263 182.124 177.263V180.079C182.124 180.079 181.845 180.333 181.364 180.358C180.504 180.409 178.251 179.039 178.251 179.039V167.977L185.338 166.962Z" fill="#B97A59"/>
<path d="M173.011 189.035C173.011 189.035 174.96 198.954 175.821 201.466C176.277 203.47 189.034 204.054 189.844 204.206C191.388 205.576 192.249 205.525 192.755 205.525C193.135 205.525 192.957 205.601 194.982 205.728C195.894 205.779 196.501 204.84 196.071 204.028C195.008 202.988 195.084 203.369 193.641 203.064C192.097 202.76 191.717 202.582 191.97 202.303C193.514 200.578 192.122 200.223 190.578 201.999C190.477 202.1 190.3 202.024 190.148 202.024C187.186 201.314 180.2 199.335 179.238 199.31C178.124 195.098 177.821 187.614 177.821 187.614L173.011 189.035Z" fill="#B97A59"/>
<path d="M172.252 190.76C172.252 190.76 171.416 182.59 173.821 180.637C176.226 178.683 178.96 181.829 178.833 185.965C178.706 190.075 178.782 191.571 178.782 191.571C178.782 191.571 175.087 192.815 172.252 190.76Z" fill="#00AEF0"/>
<path d="M185.566 166.328C185.566 166.328 184.3 173.686 181.238 172.366C178.453 171.174 179.845 172.316 177.289 174.776C176.53 175.512 177.137 166.988 177.137 166.988L185.566 166.328Z" fill="#0B4870"/>
</svg>
