<?xml version="1.0" encoding="UTF-8"?>
<!DOCTYPE svg PUBLIC "-//W3C//DTD SVG 1.1//EN" "http://www.w3.org/Graphics/SVG/1.1/DTD/svg11.dtd">
<svg xmlns="http://www.w3.org/2000/svg" version="1.1" width="3182px" height="3191px" style="shape-rendering:geometricPrecision; text-rendering:geometricPrecision; image-rendering:optimizeQuality; fill-rule:evenodd; clip-rule:evenodd" xmlns:xlink="http://www.w3.org/1999/xlink">
<g><path style="opacity:0.999" fill="#ebebea" d="M -0.5,-0.5 C 1060.17,-0.5 2120.83,-0.5 3181.5,-0.5C 3181.5,1063.17 3181.5,2126.83 3181.5,3190.5C 2120.83,3190.5 1060.17,3190.5 -0.5,3190.5C -0.5,2126.83 -0.5,1063.17 -0.5,-0.5 Z"/></g>
<g><path style="opacity:1" fill="#7f1f26" d="M 439.5,1270.5 C 470.262,1268.12 498.929,1274.62 525.5,1290C 556.879,1313.03 569.212,1343.36 562.5,1381C 548.501,1381.92 534.501,1382.75 520.5,1383.5C 520.622,1336.62 497.289,1312.96 450.5,1312.5C 399.719,1315.72 378.885,1342.39 388,1392.5C 395.641,1409.81 407.807,1422.98 424.5,1432C 450.615,1444.59 476.948,1456.59 503.5,1468C 522.569,1477.07 539.403,1489.24 554,1504.5C 577.428,1535.36 582.095,1569.02 568,1605.5C 557.704,1630.8 540.204,1649.3 515.5,1661C 484.385,1674.73 452.051,1678.4 418.5,1672C 359.47,1658.14 327.47,1620.97 322.5,1560.5C 337.473,1559.29 352.473,1558.63 367.5,1558.5C 375.093,1602.59 401.093,1627.43 445.5,1633C 469.24,1635.08 490.573,1629.08 509.5,1615C 526.208,1595.59 530.041,1573.76 521,1549.5C 512.112,1532.28 498.945,1519.45 481.5,1511C 460.401,1501.12 439.067,1491.78 417.5,1483C 394.49,1473.59 374.324,1460.09 357,1442.5C 337.204,1417.07 330.537,1388.4 337,1356.5C 347.325,1315.84 372.491,1289.01 412.5,1276C 421.524,1273.59 430.524,1271.76 439.5,1270.5 Z"/></g>
<g><path style="opacity:1" fill="#7f1f26" d="M 859.5,1383.5 C 857.167,1383.5 854.833,1383.5 852.5,1383.5C 852.784,1381.59 852.451,1379.92 851.5,1378.5C 847.495,1339.33 825.828,1317.49 786.5,1313C 761.99,1309.71 739.657,1315.05 719.5,1329C 703.886,1343.06 694.719,1360.56 692,1381.5C 690.794,1396.13 690.127,1410.8 690,1425.5C 689.333,1460.17 689.333,1494.83 690,1529.5C 687.909,1554.13 692.909,1577.13 705,1598.5C 721.919,1621.79 744.919,1633.46 774,1633.5C 792.495,1633.25 809.661,1628.42 825.5,1619C 844.653,1603.52 854.319,1583.36 854.5,1558.5C 869.172,1559.17 883.839,1560 898.5,1561C 898.49,1608.7 876.823,1642.7 833.5,1663C 807.839,1673.61 781.173,1677.28 753.5,1674C 686.404,1664.9 648.904,1626.74 641,1559.5C 639.011,1503.17 639.011,1446.83 641,1390.5C 650.43,1319.07 690.93,1279.24 762.5,1271C 796.876,1268 828.542,1275.67 857.5,1294C 885.287,1316.42 898.287,1345.59 896.5,1381.5C 884.197,1382.62 871.864,1383.29 859.5,1383.5 Z"/></g>
<g><path style="opacity:1" fill="#7f1f26" d="M 1079.5,1270.5 C 1117.45,1267.55 1151.79,1277.05 1182.5,1299C 1208.83,1322.16 1223.66,1351.32 1227,1386.5C 1229.87,1437.81 1230.2,1489.15 1228,1540.5C 1227.64,1571.98 1218.64,1600.65 1201,1626.5C 1178.13,1654.52 1148.63,1670.35 1112.5,1674C 1072,1679.13 1035.67,1669.46 1003.5,1645C 977.097,1620.69 962.597,1590.52 960,1554.5C 957.157,1504.52 956.824,1454.52 959,1404.5C 958.33,1358.76 975.83,1321.92 1011.5,1294C 1032.18,1280.27 1054.85,1272.44 1079.5,1270.5 Z"/></g>
<g><path style="opacity:1" fill="#7f1f26" d="M 1315.5,1278.5 C 1356.5,1278.33 1397.5,1278.5 1438.5,1279C 1465.26,1280.36 1490.59,1287.02 1514.5,1299C 1540.57,1315.61 1555.07,1339.45 1558,1370.5C 1562.97,1422.42 1542.14,1459.58 1495.5,1482C 1488.03,1485.4 1480.36,1488.24 1472.5,1490.5C 1481.59,1497.76 1489.09,1506.43 1495,1516.5C 1523.5,1566.17 1552,1615.83 1580.5,1665.5C 1561.94,1666.82 1543.44,1666.82 1525,1665.5C 1494.5,1611 1464,1556.5 1433.5,1502C 1410.5,1501.5 1387.5,1501.33 1364.5,1501.5C 1364.5,1556.5 1364.5,1611.5 1364.5,1666.5C 1347.83,1666.5 1331.17,1666.5 1314.5,1666.5C 1314.17,1537.1 1314.5,1407.76 1315.5,1278.5 Z"/></g>
<g><path style="opacity:1" fill="#b58488" d="M 2361.5,1279.5 C 2380.34,1278.17 2399.34,1278.17 2418.5,1279.5C 2418.38,1280.11 2418.04,1280.44 2417.5,1280.5C 2399.01,1279.5 2380.34,1279.17 2361.5,1279.5 Z"/></g>
<g><path style="opacity:1" fill="#7f1e26" d="M 1868.5,1279.5 C 1884.17,1279.5 1899.83,1279.5 1915.5,1279.5C 1915.5,1408.5 1915.5,1537.5 1915.5,1666.5C 1898.59,1666.83 1881.76,1666.49 1865,1665.5C 1815,1580.83 1765,1496.17 1715,1411.5C 1707.31,1392.93 1699.15,1374.6 1690.5,1356.5C 1690.29,1355.08 1689.79,1353.74 1689,1352.5C 1688.5,1457.17 1688.33,1561.83 1688.5,1666.5C 1672.83,1666.5 1657.17,1666.5 1641.5,1666.5C 1641.5,1537.5 1641.5,1408.5 1641.5,1279.5C 1658.74,1279.17 1675.91,1279.51 1693,1280.5C 1741.67,1362.5 1790.33,1444.5 1839,1526.5C 1848.86,1547.75 1858.53,1569.08 1868,1590.5C 1868.5,1486.83 1868.67,1383.17 1868.5,1279.5 Z"/></g>
<g><path style="opacity:1" fill="#ceb3b5" d="M 1868.5,1279.5 C 1884.32,1278.5 1900.32,1278.17 1916.5,1278.5C 1916.83,1408 1916.5,1537.33 1915.5,1666.5C 1915.5,1537.5 1915.5,1408.5 1915.5,1279.5C 1899.83,1279.5 1884.17,1279.5 1868.5,1279.5 Z"/></g>
<g><path style="opacity:1" fill="#7e1e25" d="M 2015.5,1279.5 C 2031.83,1279.5 2048.17,1279.5 2064.5,1279.5C 2064.5,1408.5 2064.5,1537.5 2064.5,1666.5C 2048.17,1666.5 2031.83,1666.5 2015.5,1666.5C 2015.5,1537.5 2015.5,1408.5 2015.5,1279.5 Z"/></g>
<g><path style="opacity:1" fill="#9d575b" d="M 2015.5,1279.5 C 2031.99,1278.5 2048.66,1278.17 2065.5,1278.5C 2065.83,1408 2065.5,1537.33 2064.5,1666.5C 2064.5,1537.5 2064.5,1408.5 2064.5,1279.5C 2048.17,1279.5 2031.83,1279.5 2015.5,1279.5 Z"/></g>
<g><path style="opacity:1" fill="#7e1e25" d="M 2164.5,1279.5 C 2181.17,1279.5 2197.83,1279.5 2214.5,1279.5C 2214.5,1408.5 2214.5,1537.5 2214.5,1666.5C 2197.83,1666.5 2181.17,1666.5 2164.5,1666.5C 2164.5,1537.5 2164.5,1408.5 2164.5,1279.5 Z"/></g>
<g><path style="opacity:1" fill="#ceb3b4" d="M 2164.5,1279.5 C 2181.33,1278.5 2198.33,1278.17 2215.5,1278.5C 2215.83,1408 2215.5,1537.33 2214.5,1666.5C 2214.5,1537.5 2214.5,1408.5 2214.5,1279.5C 2197.83,1279.5 2181.17,1279.5 2164.5,1279.5 Z"/></g>
<g><path style="opacity:1" fill="#7f1f26" d="M 2361.5,1279.5 C 2380.34,1279.17 2399.01,1279.5 2417.5,1280.5C 2369.51,1341.8 2321.51,1403.14 2273.5,1464.5C 2325.69,1531.52 2377.69,1598.69 2429.5,1666C 2409.83,1666.67 2390.17,1666.67 2370.5,1666C 2319.62,1600.41 2268.62,1534.91 2217.5,1469.5C 2265.17,1405.84 2313.17,1342.51 2361.5,1279.5 Z"/></g>
<g><path style="opacity:1" fill="#ebebea" d="M 1082.5,1312.5 C 1136.23,1309.09 1167.73,1333.75 1177,1386.5C 1178.44,1435.83 1178.77,1485.16 1178,1534.5C 1179.13,1559.99 1172.8,1583.32 1159,1604.5C 1141.66,1624.08 1119.82,1633.75 1093.5,1633.5C 1042.57,1630.41 1014.74,1603.41 1010,1552.5C 1008.03,1497.17 1008.03,1441.83 1010,1386.5C 1016.02,1343.65 1040.18,1318.98 1082.5,1312.5 Z"/></g>
<g><path style="opacity:1" fill="#ebeae9" d="M 1364.5,1320.5 C 1387.5,1320.33 1410.5,1320.5 1433.5,1321C 1498.55,1327.91 1521.39,1362.74 1502,1425.5C 1494.29,1442.21 1481.45,1452.71 1463.5,1457C 1442.44,1461.67 1421.11,1463.84 1399.5,1463.5C 1387.84,1462.89 1376.17,1462.56 1364.5,1462.5C 1364.5,1415.17 1364.5,1367.83 1364.5,1320.5 Z"/></g>
<g><path style="opacity:1" fill="#d0b8b9" d="M 1690.5,1356.5 C 1689.83,1459.83 1689.17,1563.17 1688.5,1666.5C 1688.33,1561.83 1688.5,1457.17 1689,1352.5C 1689.79,1353.74 1690.29,1355.08 1690.5,1356.5 Z"/></g>
<g><path style="opacity:1" fill="#b27d81" d="M 851.5,1378.5 C 852.451,1379.92 852.784,1381.59 852.5,1383.5C 854.833,1383.5 857.167,1383.5 859.5,1383.5C 857.052,1384.47 854.385,1384.81 851.5,1384.5C 851.5,1382.5 851.5,1380.5 851.5,1378.5 Z"/></g>
<g><path style="opacity:1" fill="#886970" d="M 448.5,1818.5 C 481.421,1814.89 512.087,1821.39 540.5,1838C 572.143,1860.12 587.143,1890.62 585.5,1929.5C 570.486,1929.88 555.486,1930.54 540.5,1931.5C 539.818,1896.96 523.152,1874.13 490.5,1863C 464.268,1856.45 439.268,1859.45 415.5,1872C 396.874,1885.07 385.707,1902.9 382,1925.5C 381.597,1930.87 380.93,1936.2 380,1941.5C 379.092,1996.51 379.425,2051.51 381,2106.5C 390.298,2154.63 419.465,2179.63 468.5,2181.5C 517.622,2179.22 545.122,2153.55 551,2104.5C 552.652,2086.5 552.818,2068.5 551.5,2050.5C 523.5,2050.5 495.5,2050.5 467.5,2050.5C 467.5,2037.5 467.5,2024.5 467.5,2011.5C 511.167,2011.5 554.833,2011.5 598.5,2011.5C 599.642,2040.47 599.809,2069.47 599,2098.5C 591.281,2177.72 547.781,2219.06 468.5,2222.5C 434.28,2223.37 403.613,2213.54 376.5,2193C 347.179,2166.51 331.679,2133.35 330,2093.5C 327.688,2040.48 328.021,1987.48 331,1934.5C 340.548,1865.78 379.715,1827.12 448.5,1818.5 Z"/></g>
<g><path style="opacity:1" fill="#886970" d="M 1385.5,1818.5 C 1421.08,1814.59 1453.41,1822.75 1482.5,1843C 1507.64,1865.91 1518.31,1894.41 1514.5,1928.5C 1499.47,1929.13 1484.47,1930.13 1469.5,1931.5C 1470.45,1885.12 1447.78,1861.12 1401.5,1859.5C 1379.48,1858.89 1360.98,1866.56 1346,1882.5C 1334.09,1900.8 1331.42,1920.47 1338,1941.5C 1340,1945.5 1342,1949.5 1344,1953.5C 1353.49,1965.49 1364.99,1974.99 1378.5,1982C 1399.25,1991.92 1420.25,2001.25 1441.5,2010C 1464.73,2019.92 1485.23,2033.75 1503,2051.5C 1522.36,2075.58 1529.02,2102.91 1523,2133.5C 1515.46,2169.38 1494.96,2194.88 1461.5,2210C 1417.23,2227.75 1373.57,2226.41 1330.5,2206C 1293.52,2183.79 1274.19,2150.96 1272.5,2107.5C 1287.52,2107.21 1302.52,2106.54 1317.5,2105.5C 1323.8,2147.97 1348.13,2172.8 1390.5,2180C 1413.6,2182.98 1434.93,2178.32 1454.5,2166C 1473.71,2148.33 1479.54,2126.83 1472,2101.5C 1465.14,2084.31 1453.64,2071.14 1437.5,2062C 1412.64,2049.57 1387.31,2038.24 1361.5,2028C 1338.27,2018.1 1318.44,2003.6 1302,1984.5C 1282.51,1953.21 1279.18,1920.21 1292,1885.5C 1310.78,1845.89 1341.94,1823.56 1385.5,1818.5 Z"/></g>
<g><path style="opacity:1" fill="#886970" d="M 677.5,1826.5 C 747.5,1826.5 817.5,1826.5 887.5,1826.5C 887.5,1840.17 887.5,1853.83 887.5,1867.5C 834.167,1867.5 780.833,1867.5 727.5,1867.5C 727.5,1910.17 727.5,1952.83 727.5,1995.5C 775.5,1995.5 823.5,1995.5 871.5,1995.5C 871.5,2009.17 871.5,2022.83 871.5,2036.5C 823.5,2036.5 775.5,2036.5 727.5,2036.5C 727.5,2081.83 727.5,2127.17 727.5,2172.5C 780.833,2172.5 834.167,2172.5 887.5,2172.5C 887.5,2186.17 887.5,2199.83 887.5,2213.5C 817.5,2213.5 747.5,2213.5 677.5,2213.5C 677.5,2084.5 677.5,1955.5 677.5,1826.5 Z"/></g>
<g><path style="opacity:1" fill="#886970" d="M 1083.5,2049.5 C 1060.67,2048.5 1037.67,2048.17 1014.5,2048.5C 1014.5,2103.5 1014.5,2158.5 1014.5,2213.5C 998.167,2213.5 981.833,2213.5 965.5,2213.5C 965.5,2084.5 965.5,1955.5 965.5,1826.5C 1001.5,1826.07 1037.5,1825.9 1073.5,1826C 1099.58,1826.08 1124.91,1830.42 1149.5,1839C 1190.59,1857.31 1210.26,1889.14 1208.5,1934.5C 1206.76,1980.47 1184.76,2012.63 1142.5,2031C 1135.71,2033.15 1129.05,2035.48 1122.5,2038C 1132.98,2046.43 1141.48,2056.6 1148,2068.5C 1175.37,2116.75 1202.87,2164.91 1230.5,2213C 1211.93,2213.83 1193.43,2213.66 1175,2212.5C 1144.47,2158.1 1113.97,2103.77 1083.5,2049.5 Z"/></g>
<g><path style="opacity:1" fill="#886970" d="M 1810.5,1867.5 C 1773.83,1867.5 1737.17,1867.5 1700.5,1867.5C 1700.5,1982.83 1700.5,2098.17 1700.5,2213.5C 1684.17,2213.5 1667.83,2213.5 1651.5,2213.5C 1651.83,2098.33 1651.5,1983.33 1650.5,1868.5C 1614.34,1867.5 1578,1867.17 1541.5,1867.5C 1541.5,1853.83 1541.5,1840.17 1541.5,1826.5C 1631.17,1826.5 1720.83,1826.5 1810.5,1826.5C 1810.5,1840.17 1810.5,1853.83 1810.5,1867.5 Z"/></g>
<g><path style="opacity:1" fill="#87696f" d="M 1866.5,1826.5 C 1936.17,1826.5 2005.83,1826.5 2075.5,1826.5C 2075.5,1840.17 2075.5,1853.83 2075.5,1867.5C 2022,1867.17 1968.66,1867.5 1915.5,1868.5C 1915.5,1910.83 1915.5,1953.17 1915.5,1995.5C 1963.5,1995.5 2011.5,1995.5 2059.5,1995.5C 2059.5,2009.17 2059.5,2022.83 2059.5,2036.5C 2011.33,2036.17 1963.33,2036.5 1915.5,2037.5C 1915.5,2082.5 1915.5,2127.5 1915.5,2172.5C 1968.83,2172.5 2022.17,2172.5 2075.5,2172.5C 2075.5,2186.17 2075.5,2199.83 2075.5,2213.5C 2005.83,2213.5 1936.17,2213.5 1866.5,2213.5C 1866.5,2084.5 1866.5,1955.5 1866.5,1826.5 Z"/></g>
<g><path style="opacity:1" fill="#87696f" d="M 2153.5,1826.5 C 2170.17,1826.5 2186.83,1826.5 2203.5,1826.5C 2203.5,1955.5 2203.5,2084.5 2203.5,2213.5C 2186.83,2213.5 2170.17,2213.5 2153.5,2213.5C 2153.5,2084.5 2153.5,1955.5 2153.5,1826.5 Z"/></g>
<g><path style="opacity:1" fill="#baabae" d="M 2303.5,1826.5 C 2303.5,1955.5 2303.5,2084.5 2303.5,2213.5C 2318.83,2213.5 2334.17,2213.5 2349.5,2213.5C 2349.83,2213.5 2350.17,2213.5 2350.5,2213.5C 2334.68,2214.5 2318.68,2214.83 2302.5,2214.5C 2302.17,2085 2302.5,1955.67 2303.5,1826.5 Z"/></g>
<g><path style="opacity:1" fill="#886970" d="M 2303.5,1826.5 C 2320.51,1826.17 2337.51,1826.5 2354.5,1827.5C 2403.16,1910.83 2452.33,1993.83 2502,2076.5C 2510.85,2096.19 2519.68,2115.86 2528.5,2135.5C 2528.46,2136.76 2528.96,2137.76 2530,2138.5C 2530.5,2034.5 2530.67,1930.5 2530.5,1826.5C 2545.83,1826.5 2561.17,1826.5 2576.5,1826.5C 2576.5,1955.5 2576.5,2084.5 2576.5,2213.5C 2559.83,2213.5 2543.17,2213.5 2526.5,2213.5C 2477.26,2129.36 2427.76,2045.36 2378,1961.5C 2368.88,1941.6 2360.05,1921.6 2351.5,1901.5C 2351.44,1900.96 2351.11,1900.62 2350.5,1900.5C 2349.5,2004.83 2349.17,2109.16 2349.5,2213.5C 2334.17,2213.5 2318.83,2213.5 2303.5,2213.5C 2303.5,2084.5 2303.5,1955.5 2303.5,1826.5 Z"/></g>
<g><path style="opacity:1" fill="#b9aaad" d="M 2530.5,1826.5 C 2530.67,1930.5 2530.5,2034.5 2530,2138.5C 2528.96,2137.76 2528.46,2136.76 2528.5,2135.5C 2529.17,2032.5 2529.83,1929.5 2530.5,1826.5 Z"/></g>
<g><path style="opacity:1" fill="#a38d92" d="M 2576.5,1826.5 C 2577.5,1955.67 2577.83,2085 2577.5,2214.5C 2560.33,2214.83 2543.33,2214.5 2526.5,2213.5C 2543.17,2213.5 2559.83,2213.5 2576.5,2213.5C 2576.5,2084.5 2576.5,1955.5 2576.5,1826.5 Z"/></g>
<g><path style="opacity:1" fill="#ebebea" d="M 1043.5,1867.5 C 1063.29,1866.83 1082.96,1867.99 1102.5,1871C 1122.51,1874.41 1138.34,1884.24 1150,1900.5C 1156.38,1911.28 1159.22,1922.95 1158.5,1935.5C 1159.13,1982.04 1136.13,2006.54 1089.5,2009C 1065.19,2010.36 1040.86,2010.86 1016.5,2010.5C 1015.51,1963.24 1015.17,1915.91 1015.5,1868.5C 1025.01,1868.83 1034.35,1868.49 1043.5,1867.5 Z"/></g>
<g><path style="opacity:1" fill="#b5a5a8" d="M 2075.5,1826.5 C 2076.5,1840.32 2076.83,1854.32 2076.5,1868.5C 2023.17,1868.5 1969.83,1868.5 1916.5,1868.5C 1916.17,1868.5 1915.83,1868.5 1915.5,1868.5C 1968.66,1867.5 2022,1867.17 2075.5,1867.5C 2075.5,1853.83 2075.5,1840.17 2075.5,1826.5 Z"/></g>
<g><path style="opacity:1" fill="#bcadb0" d="M 1043.5,1867.5 C 1034.35,1868.49 1025.01,1868.83 1015.5,1868.5C 1015.17,1915.91 1015.51,1963.24 1016.5,2010.5C 1014.5,1963.18 1013.84,1915.51 1014.5,1867.5C 1024.17,1867.5 1033.83,1867.5 1043.5,1867.5 Z"/></g>
<g><path style="opacity:1" fill="#b2a1a4" d="M 1810.5,1867.5 C 1774.34,1868.5 1738,1868.83 1701.5,1868.5C 1701.5,1983.83 1701.5,2099.17 1701.5,2214.5C 1684.5,2214.5 1667.5,2214.5 1650.5,2214.5C 1650.5,2099.17 1650.5,1983.83 1650.5,1868.5C 1651.5,1983.33 1651.83,2098.33 1651.5,2213.5C 1667.83,2213.5 1684.17,2213.5 1700.5,2213.5C 1700.5,2098.17 1700.5,1982.83 1700.5,1867.5C 1737.17,1867.5 1773.83,1867.5 1810.5,1867.5 Z"/></g>
<g><path style="opacity:1" fill="#a18a8f" d="M 2351.5,1901.5 C 2350.5,2005.33 2350.17,2109.33 2350.5,2213.5C 2350.17,2213.5 2349.83,2213.5 2349.5,2213.5C 2349.17,2109.16 2349.5,2004.83 2350.5,1900.5C 2351.11,1900.62 2351.44,1900.96 2351.5,1901.5 Z"/></g>
<g><path style="opacity:1" fill="#d2cacb" d="M 1915.5,1868.5 C 1915.83,1868.5 1916.17,1868.5 1916.5,1868.5C 1916.5,1910.5 1916.5,1952.5 1916.5,1994.5C 1964.67,1994.17 2012.67,1994.5 2060.5,1995.5C 2060.17,1995.5 2059.83,1995.5 2059.5,1995.5C 2011.5,1995.5 1963.5,1995.5 1915.5,1995.5C 1915.5,1953.17 1915.5,1910.83 1915.5,1868.5 Z"/></g>
<g><path style="opacity:1" fill="#b5a4a8" d="M 2059.5,1995.5 C 2059.83,1995.5 2060.17,1995.5 2060.5,1995.5C 2060.5,2009.5 2060.5,2023.5 2060.5,2037.5C 2012.5,2037.5 1964.5,2037.5 1916.5,2037.5C 1916.17,2037.5 1915.83,2037.5 1915.5,2037.5C 1963.33,2036.5 2011.33,2036.17 2059.5,2036.5C 2059.5,2022.83 2059.5,2009.17 2059.5,1995.5 Z"/></g>
<g><path style="opacity:1" fill="#baabae" d="M 965.5,1826.5 C 965.5,1955.5 965.5,2084.5 965.5,2213.5C 981.833,2213.5 998.167,2213.5 1014.5,2213.5C 1014.5,2158.5 1014.5,2103.5 1014.5,2048.5C 1037.67,2048.17 1060.67,2048.5 1083.5,2049.5C 1060.83,2049.5 1038.17,2049.5 1015.5,2049.5C 1015.5,2104.5 1015.5,2159.5 1015.5,2214.5C 998.5,2214.5 981.5,2214.5 964.5,2214.5C 964.167,2085 964.5,1955.67 965.5,1826.5 Z"/></g>
<g><path style="opacity:1" fill="#d2cacb" d="M 1915.5,2037.5 C 1915.83,2037.5 1916.17,2037.5 1916.5,2037.5C 1916.5,2082.17 1916.5,2126.83 1916.5,2171.5C 1970,2171.17 2023.34,2171.5 2076.5,2172.5C 2076.17,2172.5 2075.83,2172.5 2075.5,2172.5C 2022.17,2172.5 1968.83,2172.5 1915.5,2172.5C 1915.5,2127.5 1915.5,2082.5 1915.5,2037.5 Z"/></g>
<g><path style="opacity:1" fill="#ae9b9f" d="M 1866.5,1826.5 C 1866.5,1955.5 1866.5,2084.5 1866.5,2213.5C 1936.17,2213.5 2005.83,2213.5 2075.5,2213.5C 2075.5,2199.83 2075.5,2186.17 2075.5,2172.5C 2075.83,2172.5 2076.17,2172.5 2076.5,2172.5C 2076.5,2186.5 2076.5,2200.5 2076.5,2214.5C 2006.17,2214.5 1935.83,2214.5 1865.5,2214.5C 1865.17,2085 1865.5,1955.67 1866.5,1826.5 Z"/></g>
<g><path style="opacity:1" fill="#9e9d9d" d="M 861.5,2373.5 C 900.501,2373.33 939.501,2373.5 978.5,2374C 1076.05,2379.21 1117.21,2430.04 1102,2526.5C 1092.69,2564.48 1069.86,2590.64 1033.5,2605C 1016,2611.3 997.999,2615.3 979.5,2617C 956.836,2617.5 934.169,2617.67 911.5,2617.5C 911.5,2665.5 911.5,2713.5 911.5,2761.5C 894.833,2761.5 878.167,2761.5 861.5,2761.5C 861.5,2632.17 861.5,2502.83 861.5,2373.5 Z"/></g>
<g><path style="opacity:1" fill="#9e9d9d" d="M 342.5,2374.5 C 358.833,2374.5 375.167,2374.5 391.5,2374.5C 391.167,2489.67 391.5,2604.67 392.5,2719.5C 444.833,2719.5 497.167,2719.5 549.5,2719.5C 549.5,2733.5 549.5,2747.5 549.5,2761.5C 480.5,2761.5 411.5,2761.5 342.5,2761.5C 342.5,2632.5 342.5,2503.5 342.5,2374.5 Z"/></g>
<g><path style="opacity:1" fill="#b2b1b1" d="M 342.5,2374.5 C 358.992,2373.5 375.658,2373.17 392.5,2373.5C 392.5,2488.83 392.5,2604.17 392.5,2719.5C 391.5,2604.67 391.167,2489.67 391.5,2374.5C 375.167,2374.5 358.833,2374.5 342.5,2374.5 Z"/></g>
<g><path style="opacity:1" fill="#b2b1b1" d="M 651.5,2373.5 C 651.5,2373.83 651.5,2374.17 651.5,2374.5C 635.167,2374.5 618.833,2374.5 602.5,2374.5C 602.5,2503.5 602.5,2632.5 602.5,2761.5C 601.5,2632.33 601.167,2503 601.5,2373.5C 618.167,2373.5 634.833,2373.5 651.5,2373.5 Z"/></g>
<g><path style="opacity:1" fill="#9d9d9c" d="M 651.5,2374.5 C 651.5,2489.83 651.5,2605.17 651.5,2720.5C 703.833,2720.5 756.167,2720.5 808.5,2720.5C 808.5,2734.17 808.5,2747.83 808.5,2761.5C 739.833,2761.5 671.167,2761.5 602.5,2761.5C 602.5,2632.5 602.5,2503.5 602.5,2374.5C 618.833,2374.5 635.167,2374.5 651.5,2374.5 Z"/></g>
<g><path style="opacity:1" fill="#c0c0bf" d="M 651.5,2373.5 C 652.5,2488.67 652.833,2604 652.5,2719.5C 704.833,2719.5 757.167,2719.5 809.5,2719.5C 809.829,2733.68 809.496,2747.68 808.5,2761.5C 808.5,2747.83 808.5,2734.17 808.5,2720.5C 756.167,2720.5 703.833,2720.5 651.5,2720.5C 651.5,2605.17 651.5,2489.83 651.5,2374.5C 651.5,2374.17 651.5,2373.83 651.5,2373.5 Z"/></g>
<g><path style="opacity:1" fill="#ebebea" d="M 911.5,2415.5 C 935.529,2415.1 959.529,2415.6 983.5,2417C 1001.58,2419.02 1017.91,2425.36 1032.5,2436C 1049.18,2452.21 1056.84,2472.05 1055.5,2495.5C 1054.45,2545.72 1028.79,2572.22 978.5,2575C 956.169,2575.5 933.836,2575.67 911.5,2575.5C 911.5,2522.17 911.5,2468.83 911.5,2415.5 Z"/></g>
</svg>
